# Blender v2.92.0 OBJ File: 'Beach House.blend'
# www.blender.org
o Cube.002_Cube.003
v 1.452502 2.463740 4.568381
v 1.472007 2.502121 4.568381
v 1.452502 2.502121 4.588867
v 1.466294 2.474981 4.568381
v 1.463763 2.479961 4.580208
v 1.466294 2.502121 4.582867
v 1.452502 2.474981 4.582867
v 1.472007 2.623332 4.568381
v 1.452502 2.661713 4.568381
v 1.452502 2.623332 4.588867
v 1.466294 2.650471 4.568381
v 1.463763 2.645491 4.580208
v 1.452502 2.650471 4.582867
v 1.466294 2.623332 4.582867
v 0.827974 2.463740 4.568381
v 0.827974 2.502121 4.588867
v 0.808468 2.502121 4.568381
v 0.827974 2.474981 4.582867
v 0.816712 2.479961 4.580209
v 0.814182 2.502121 4.582867
v 0.814182 2.474981 4.568381
v 0.827974 2.661713 4.568381
v 0.808468 2.623332 4.568381
v 0.827974 2.623332 4.588867
v 0.814182 2.650471 4.568381
v 0.816712 2.645491 4.580209
v 0.814182 2.623332 4.582867
v 0.827974 2.650471 4.582867
v 1.452502 2.463740 2.959511
v 1.452502 2.502121 2.939025
v 1.472007 2.502121 2.959511
v 1.452502 2.474981 2.945025
v 1.463763 2.479961 2.947683
v 1.466294 2.502121 2.945025
v 1.466294 2.474981 2.959511
v 1.452502 2.661713 2.959511
v 1.472007 2.623332 2.959511
v 1.452502 2.623332 2.939025
v 1.466294 2.650471 2.959511
v 1.463763 2.645491 2.947683
v 1.466294 2.623332 2.945025
v 1.452502 2.650471 2.945025
v 0.827974 2.463740 2.959511
v 0.808468 2.502121 2.959511
v 0.827974 2.502121 2.939025
v 0.814181 2.474981 2.959511
v 0.816712 2.479961 2.947683
v 0.814181 2.502121 2.945025
v 0.827974 2.474981 2.945025
v 0.827974 2.661713 2.959511
v 0.827974 2.623332 2.939025
v 0.808468 2.623332 2.959511
v 0.827974 2.650471 2.945025
v 0.816712 2.645491 2.947683
v 0.814181 2.623332 2.945025
v 0.814181 2.650471 2.959511
vt 0.576533 0.753104
vt 0.423467 0.996896
vt 0.423467 0.753104
vt 0.576533 0.507349
vt 0.423467 0.742651
vt 0.423468 0.507349
vt 0.871896 0.507349
vt 0.628104 0.742651
vt 0.628104 0.507349
vt 0.576533 0.007349
vt 0.423467 0.242651
vt 0.423468 0.007349
vt 0.576533 0.253104
vt 0.423467 0.496896
vt 0.423467 0.253104
vt 0.128104 0.750000
vt 0.125000 0.742651
vt 0.128104 0.742651
vt 0.395485 1.000000
vt 0.375000 0.996896
vt 0.375000 0.003106
vt 0.423467 0.000000
vt 0.576533 0.996896
vt 0.625000 0.998688
vt 0.576533 1.000000
vt 0.875000 0.742651
vt 0.871896 0.750000
vt 0.871896 0.742651
vt 0.604515 0.000000
vt 0.625000 0.007349
vt 0.125000 0.507349
vt 0.128104 0.500000
vt 0.128104 0.507349
vt 0.395485 0.250000
vt 0.375000 0.242651
vt 0.375000 0.251312
vt 0.423467 0.250000
vt 0.871896 0.500000
vt 0.875000 0.507349
vt 0.604515 0.250000
vt 0.625000 0.253104
vt 0.576532 0.242651
vt 0.625000 0.246894
vt 0.576532 0.250000
vt 0.375000 0.742651
vt 0.371896 0.750000
vt 0.371896 0.742651
vt 0.381828 0.749402
vt 0.423467 0.750000
vt 0.628104 0.750000
vt 0.625000 0.742651
vt 0.618609 0.748965
vt 0.625000 0.753104
vt 0.576532 0.742651
vt 0.576532 0.750000
vt 0.371896 0.500000
vt 0.375000 0.507349
vt 0.371896 0.507349
vt 0.381391 0.501035
vt 0.375000 0.496896
vt 0.423467 0.500000
vt 0.625000 0.507349
vt 0.628104 0.500000
vt 0.618172 0.500598
vt 0.576533 0.496896
vt 0.576532 0.500000
vt 0.375000 0.007349
vt 0.423467 1.000000
vt 0.576533 0.000000
vt 0.625000 0.242651
vt 0.375000 0.253104
vt 0.625000 0.496896
vt 0.375000 0.753104
vt 0.625000 0.996896
vt 0.126312 0.750000
vt 0.875000 0.746894
vt 0.125000 0.503106
vt 0.873688 0.500000
vn 0.9796 0.0937 -0.1778
vn 0.9796 -0.0937 0.1778
vn 0.9796 -0.0937 -0.1778
vn -0.1940 0.0978 -0.9761
vn 0.1940 -0.0978 -0.9761
vn -0.1940 -0.0978 -0.9761
vn 0.0000 1.0000 0.0000
vn 0.1940 0.0978 0.9761
vn -0.1940 -0.0978 0.9761
vn 0.1940 -0.0978 0.9761
vn -0.9796 0.0937 0.1778
vn -0.9796 -0.0937 -0.1779
vn -0.9796 -0.0937 0.1778
vn 0.5063 -0.7151 0.4820
vn 0.5042 -0.7178 0.4801
vn 0.5414 -0.6642 0.5155
vn 0.9336 -0.1827 0.3084
vn 0.9708 -0.2043 0.1261
vn 0.3352 -0.1902 0.9228
vn 0.3978 -0.0757 0.9144
vn 0.9796 0.0937 0.1778
vn 0.9336 0.1827 0.3084
vn 0.9278 0.0728 0.3659
vn 0.5042 0.7178 0.4801
vn 0.5062 0.7151 0.4820
vn 0.5414 0.6642 0.5155
vn 0.3352 0.1902 0.9228
vn 0.1374 0.2138 0.9672
vn -0.5042 -0.7178 0.4801
vn -0.5063 -0.7151 0.4820
vn -0.5414 -0.6642 0.5155
vn -0.3351 -0.1902 0.9228
vn -0.1374 -0.2138 0.9672
vn -0.9336 -0.1827 0.3084
vn -0.9278 -0.0728 0.3659
vn -0.5062 0.7151 0.4820
vn -0.5042 0.7178 0.4801
vn -0.5414 0.6642 0.5155
vn -0.9336 0.1827 0.3084
vn -0.9707 0.2044 0.1261
vn -0.1940 0.0978 0.9761
vn -0.3351 0.1902 0.9228
vn -0.3977 0.0757 0.9144
vn 0.5042 -0.7178 -0.4801
vn 0.5062 -0.7151 -0.4820
vn 0.5414 -0.6642 -0.5155
vn 0.3351 -0.1902 -0.9228
vn 0.1373 -0.2138 -0.9672
vn 0.9336 -0.1827 -0.3084
vn 0.9278 -0.0728 -0.3659
vn 0.5062 0.7151 -0.4820
vn 0.5042 0.7178 -0.4801
vn 0.5414 0.6642 -0.5155
vn 0.9336 0.1827 -0.3084
vn 0.9707 0.2043 -0.1261
vn 0.1940 0.0978 -0.9761
vn 0.3351 0.1902 -0.9228
vn 0.3978 0.0757 -0.9144
vn -0.5062 -0.7151 -0.4820
vn -0.5042 -0.7178 -0.4801
vn -0.5414 -0.6642 -0.5155
vn -0.9335 -0.1827 -0.3084
vn -0.9707 -0.2044 -0.1261
vn -0.3351 -0.1902 -0.9228
vn -0.3978 -0.0757 -0.9144
vn -0.5042 0.7178 -0.4801
vn -0.5062 0.7151 -0.4820
vn -0.5414 0.6642 -0.5155
vn -0.3351 0.1902 -0.9228
vn -0.1373 0.2138 -0.9672
vn -0.9796 0.0937 -0.1778
vn -0.9336 0.1827 -0.3084
vn -0.9278 0.0728 -0.3659
vn 0.0000 -0.7900 0.6131
vn 0.1374 -0.2138 0.9672
vn 0.9278 -0.0728 0.3659
vn 0.3978 0.0757 0.9144
vn 0.0000 0.7900 0.6131
vn -0.1374 0.2138 0.9672
vn -0.9278 0.0728 0.3659
vn -0.6318 -0.7751 0.0000
vn -0.9707 -0.2043 0.1261
vn -0.6318 0.7751 0.0000
vn -0.9707 0.2044 -0.1261
vn -0.3978 0.0757 -0.9144
vn -0.9278 -0.0728 -0.3659
vn 0.0000 -0.7900 -0.6131
vn -0.1374 -0.2138 -0.9672
vn 0.0000 0.7900 -0.6131
vn 0.1374 0.2138 -0.9672
vn 0.9278 0.0728 -0.3659
vn 0.6318 -0.7752 -0.0000
vn 0.6318 -0.7751 -0.0000
vn 0.9707 -0.2044 -0.1261
vn 0.6318 0.7751 -0.0000
vn 0.9707 0.2043 0.1261
vn 0.0000 -1.0000 0.0000
vn 0.4481 -0.7856 0.4267
vn 0.4481 0.7856 0.4267
vn -0.4481 -0.7856 0.4267
vn -0.3977 -0.0757 0.9144
vn -0.4481 0.7856 0.4266
vn 0.4481 -0.7856 -0.4267
vn 0.3978 -0.0757 -0.9143
vn 0.4481 0.7856 -0.4267
vn -0.4481 -0.7856 -0.4267
vn -0.4481 0.7856 -0.4266
s 1
f 37/1/1 2/2/2 31/3/3
f 51/4/4 30/5/5 45/6/6
f 22/7/7 36/8/7 50/9/7
f 10/10/8 16/11/9 3/12/10
f 23/13/11 44/14/12 17/15/13
f 4/16/14 7/17/15 1/18/16
f 2/2/2 5/19/17 4/20/18
f 3/12/10 5/21/19 6/22/20
f 8/23/21 12/24/22 14/25/23
f 13/26/24 11/27/25 9/28/26
f 10/10/8 12/29/27 13/30/28
f 18/31/29 21/32/30 15/33/31
f 16/11/9 19/34/32 18/35/33
f 17/15/13 19/36/34 20/37/35
f 25/38/36 28/39/37 22/7/38
f 23/13/11 26/40/39 25/41/40
f 24/42/41 26/43/42 27/44/43
f 32/45/44 35/46/45 29/47/46
f 30/5/5 33/48/47 32/45/48
f 31/3/3 33/48/49 34/49/50
f 39/50/51 42/51/52 36/8/53
f 37/1/1 40/52/54 39/53/55
f 38/54/56 40/52/57 41/55/58
f 46/56/59 49/57/60 43/58/61
f 44/14/12 47/59/62 46/60/63
f 45/6/6 47/59/64 48/61/65
f 53/62/66 56/63/67 50/9/68
f 51/4/4 54/64/69 53/62/70
f 52/65/71 54/64/72 55/66/73
f 1/18/74 18/31/74 15/33/74
f 7/67/75 16/11/9 18/35/33
f 8/23/21 6/68/76 2/2/2
f 14/69/77 3/12/10 6/22/20
f 22/7/78 13/26/78 9/28/78
f 28/70/79 10/10/8 13/30/28
f 17/15/13 27/44/80 23/13/11
f 27/44/43 16/11/9 24/42/41
f 15/33/81 46/56/81 43/58/81
f 21/71/82 44/14/12 46/60/63
f 50/9/83 25/38/83 22/7/83
f 56/72/84 23/13/11 25/41/40
f 45/6/6 55/66/85 51/4/4
f 48/61/86 52/65/71 55/66/73
f 43/58/87 32/45/87 29/47/87
f 49/57/88 30/5/5 32/45/48
f 36/8/89 53/62/89 50/9/89
f 42/51/90 51/4/4 53/62/70
f 31/3/3 41/55/91 37/1/1
f 41/55/58 30/5/5 38/54/56
f 29/47/92 4/16/93 1/18/93
f 35/73/94 2/2/2 4/20/18
f 9/28/95 39/50/95 36/8/95
f 11/74/96 37/1/1 39/53/55
f 43/58/97 1/18/97 15/33/97
f 37/1/1 8/23/21 2/2/2
f 51/4/4 38/54/56 30/5/5
f 22/7/7 9/28/7 36/8/7
f 10/10/8 24/42/41 16/11/9
f 23/13/11 52/65/71 44/14/12
f 4/16/14 5/75/98 7/17/15
f 2/2/2 6/68/76 5/19/17
f 3/12/10 7/67/75 5/21/19
f 8/23/21 11/74/96 12/24/22
f 13/26/24 12/76/99 11/27/25
f 10/10/8 14/69/77 12/29/27
f 18/31/29 19/77/100 21/32/30
f 16/11/9 20/37/101 19/34/32
f 17/15/13 21/71/82 19/36/34
f 25/38/36 26/78/102 28/39/37
f 23/13/11 27/44/80 26/40/39
f 24/42/41 28/70/79 26/43/42
f 32/45/44 33/48/103 35/46/45
f 30/5/5 34/49/104 33/48/47
f 31/3/3 35/73/94 33/48/49
f 39/50/51 40/52/105 42/51/52
f 37/1/1 41/55/91 40/52/54
f 38/54/56 42/51/90 40/52/57
f 46/56/59 47/59/106 49/57/60
f 44/14/12 48/61/86 47/59/62
f 45/6/6 49/57/88 47/59/64
f 53/62/66 54/64/107 56/63/67
f 51/4/4 55/66/85 54/64/69
f 52/65/71 56/72/84 54/64/72
f 1/18/74 7/17/74 18/31/74
f 7/67/75 3/12/10 16/11/9
f 8/23/21 14/25/23 6/68/76
f 14/69/77 10/10/8 3/12/10
f 22/7/78 28/39/78 13/26/78
f 28/70/79 24/42/41 10/10/8
f 17/15/13 20/37/35 27/44/80
f 27/44/43 20/37/101 16/11/9
f 15/33/81 21/32/81 46/56/81
f 21/71/82 17/15/13 44/14/12
f 50/9/83 56/63/83 25/38/83
f 56/72/84 52/65/71 23/13/11
f 45/6/6 48/61/65 55/66/85
f 48/61/86 44/14/12 52/65/71
f 43/58/87 49/57/87 32/45/87
f 49/57/88 45/6/6 30/5/5
f 36/8/89 42/51/89 53/62/89
f 42/51/90 38/54/56 51/4/4
f 31/3/3 34/49/50 41/55/91
f 41/55/58 34/49/104 30/5/5
f 29/47/92 35/46/92 4/16/93
f 35/73/94 31/3/3 2/2/2
f 9/28/95 11/27/95 39/50/95
f 11/74/96 8/23/21 37/1/1
f 43/58/97 29/47/97 1/18/97
o Cube.003_Cube.004
v -0.665277 2.463740 4.568381
v -0.645772 2.502121 4.568381
v -0.665277 2.502121 4.588867
v -0.651485 2.474981 4.568381
v -0.654016 2.479961 4.580208
v -0.651485 2.502121 4.582867
v -0.665277 2.474981 4.582867
v -0.645772 2.623332 4.568381
v -0.665277 2.661713 4.568381
v -0.665277 2.623332 4.588867
v -0.651485 2.650471 4.568381
v -0.654016 2.645491 4.580208
v -0.665277 2.650471 4.582867
v -0.651485 2.623332 4.582867
v -1.289805 2.463740 4.568381
v -1.289805 2.502121 4.588867
v -1.309311 2.502121 4.568381
v -1.289805 2.474981 4.582867
v -1.301067 2.479961 4.580209
v -1.303598 2.502121 4.582867
v -1.303598 2.474981 4.568381
v -1.289805 2.661713 4.568381
v -1.309311 2.623332 4.568381
v -1.289805 2.623332 4.588867
v -1.303598 2.650471 4.568381
v -1.301067 2.645491 4.580209
v -1.303598 2.623332 4.582867
v -1.289805 2.650471 4.582867
v -0.665278 2.463740 2.959511
v -0.665278 2.502121 2.939025
v -0.645772 2.502121 2.959511
v -0.665278 2.474981 2.945025
v -0.654016 2.479961 2.947683
v -0.651485 2.502121 2.945025
v -0.651485 2.474981 2.959511
v -0.665278 2.661713 2.959511
v -0.645772 2.623332 2.959511
v -0.665278 2.623332 2.939025
v -0.651485 2.650471 2.959511
v -0.654016 2.645491 2.947683
v -0.651485 2.623332 2.945025
v -0.665278 2.650471 2.945025
v -1.289805 2.463740 2.959511
v -1.309311 2.502121 2.959511
v -1.289805 2.502121 2.939025
v -1.303598 2.474981 2.959511
v -1.301067 2.479961 2.947683
v -1.303598 2.502121 2.945025
v -1.289805 2.474981 2.945025
v -1.289805 2.661713 2.959511
v -1.289805 2.623332 2.939025
v -1.309311 2.623332 2.959511
v -1.289805 2.650471 2.945025
v -1.301067 2.645491 2.947683
v -1.303598 2.623332 2.945025
v -1.303598 2.650471 2.959511
vt 0.576533 0.753104
vt 0.423467 0.996896
vt 0.423467 0.753104
vt 0.576533 0.507349
vt 0.423467 0.742651
vt 0.423468 0.507349
vt 0.871896 0.507349
vt 0.628104 0.742651
vt 0.628104 0.507349
vt 0.576533 0.007349
vt 0.423467 0.242651
vt 0.423468 0.007349
vt 0.576533 0.253104
vt 0.423467 0.496896
vt 0.423467 0.253104
vt 0.128104 0.750000
vt 0.125000 0.742651
vt 0.128104 0.742651
vt 0.395485 1.000000
vt 0.375000 0.996896
vt 0.375000 0.003106
vt 0.423467 0.000000
vt 0.576533 0.996896
vt 0.625000 0.998688
vt 0.576533 1.000000
vt 0.875000 0.742651
vt 0.871896 0.750000
vt 0.871896 0.742651
vt 0.604515 0.000000
vt 0.625000 0.007349
vt 0.125000 0.507349
vt 0.128104 0.500000
vt 0.128104 0.507349
vt 0.395485 0.250000
vt 0.375000 0.242651
vt 0.375000 0.251312
vt 0.423467 0.250000
vt 0.871896 0.500000
vt 0.875000 0.507349
vt 0.604515 0.250000
vt 0.625000 0.253104
vt 0.576532 0.242651
vt 0.625000 0.246894
vt 0.576532 0.250000
vt 0.375000 0.742651
vt 0.371896 0.750000
vt 0.371896 0.742651
vt 0.381828 0.749402
vt 0.423467 0.750000
vt 0.628104 0.750000
vt 0.625000 0.742651
vt 0.618609 0.748965
vt 0.625000 0.753104
vt 0.576532 0.742651
vt 0.576532 0.750000
vt 0.371896 0.500000
vt 0.375000 0.507349
vt 0.371896 0.507349
vt 0.381391 0.501035
vt 0.375000 0.496896
vt 0.423467 0.500000
vt 0.625000 0.507349
vt 0.628104 0.500000
vt 0.618172 0.500598
vt 0.576533 0.496896
vt 0.576532 0.500000
vt 0.375000 0.007349
vt 0.423467 1.000000
vt 0.576533 0.000000
vt 0.625000 0.242651
vt 0.375000 0.253104
vt 0.625000 0.496896
vt 0.375000 0.753104
vt 0.625000 0.996896
vt 0.126312 0.750000
vt 0.875000 0.746894
vt 0.125000 0.503106
vt 0.873688 0.500000
vn 0.9796 0.0937 -0.1778
vn 0.9796 -0.0937 0.1778
vn 0.9796 -0.0937 -0.1778
vn -0.1940 0.0978 -0.9761
vn 0.1940 -0.0978 -0.9761
vn -0.1940 -0.0978 -0.9761
vn 0.0000 1.0000 0.0000
vn 0.1940 0.0978 0.9761
vn -0.1940 -0.0978 0.9761
vn 0.1940 -0.0978 0.9761
vn -0.9796 0.0937 0.1778
vn -0.9796 -0.0937 -0.1779
vn -0.9796 -0.0937 0.1778
vn 0.5063 -0.7151 0.4820
vn 0.5042 -0.7178 0.4801
vn 0.5414 -0.6642 0.5155
vn 0.9336 -0.1827 0.3084
vn 0.9708 -0.2043 0.1261
vn 0.3352 -0.1902 0.9228
vn 0.3978 -0.0757 0.9144
vn 0.9796 0.0937 0.1778
vn 0.9336 0.1827 0.3084
vn 0.9278 0.0728 0.3659
vn 0.5042 0.7178 0.4801
vn 0.5062 0.7151 0.4820
vn 0.5414 0.6642 0.5155
vn 0.3352 0.1902 0.9228
vn 0.1374 0.2138 0.9672
vn -0.5042 -0.7178 0.4801
vn -0.5063 -0.7151 0.4820
vn -0.5414 -0.6642 0.5155
vn -0.3351 -0.1902 0.9228
vn -0.1374 -0.2138 0.9672
vn -0.9336 -0.1827 0.3084
vn -0.9278 -0.0728 0.3659
vn -0.5062 0.7151 0.4820
vn -0.5042 0.7178 0.4801
vn -0.5414 0.6642 0.5155
vn -0.9336 0.1827 0.3084
vn -0.9707 0.2044 0.1261
vn -0.1940 0.0978 0.9761
vn -0.3351 0.1902 0.9228
vn -0.3977 0.0757 0.9144
vn 0.5042 -0.7178 -0.4801
vn 0.5062 -0.7151 -0.4820
vn 0.5414 -0.6642 -0.5155
vn 0.3351 -0.1902 -0.9228
vn 0.1373 -0.2138 -0.9672
vn 0.9336 -0.1827 -0.3084
vn 0.9278 -0.0728 -0.3659
vn 0.5062 0.7151 -0.4820
vn 0.5042 0.7178 -0.4801
vn 0.5414 0.6642 -0.5155
vn 0.9336 0.1827 -0.3084
vn 0.9707 0.2043 -0.1261
vn 0.1940 0.0978 -0.9761
vn 0.3351 0.1902 -0.9228
vn 0.3978 0.0757 -0.9144
vn -0.5062 -0.7151 -0.4820
vn -0.5042 -0.7178 -0.4801
vn -0.5414 -0.6642 -0.5155
vn -0.9335 -0.1827 -0.3084
vn -0.9707 -0.2044 -0.1261
vn -0.3351 -0.1902 -0.9228
vn -0.3978 -0.0757 -0.9144
vn -0.5042 0.7178 -0.4801
vn -0.5062 0.7151 -0.4820
vn -0.5414 0.6642 -0.5155
vn -0.3351 0.1902 -0.9228
vn -0.1374 0.2138 -0.9672
vn -0.9796 0.0937 -0.1778
vn -0.9336 0.1827 -0.3084
vn -0.9278 0.0728 -0.3659
vn 0.0000 -0.7900 0.6131
vn 0.1374 -0.2138 0.9672
vn 0.9278 -0.0728 0.3659
vn 0.3978 0.0757 0.9144
vn 0.0000 0.7900 0.6131
vn -0.1374 0.2138 0.9672
vn -0.9278 0.0728 0.3659
vn -0.6318 -0.7751 0.0000
vn -0.6318 -0.7752 0.0000
vn -0.9707 -0.2044 0.1261
vn -0.6318 0.7751 0.0000
vn -0.9707 0.2044 -0.1261
vn -0.3978 0.0757 -0.9144
vn -0.9278 -0.0728 -0.3659
vn 0.0000 -0.7900 -0.6131
vn -0.1374 -0.2138 -0.9672
vn 0.0000 0.7900 -0.6131
vn 0.1374 0.2138 -0.9672
vn 0.9278 0.0728 -0.3659
vn 0.6318 -0.7751 -0.0000
vn 0.9707 -0.2043 -0.1261
vn 0.6318 0.7751 -0.0000
vn 0.9707 0.2043 0.1261
vn 0.0000 -1.0000 0.0000
vn 0.4481 -0.7856 0.4267
vn 0.4481 0.7856 0.4267
vn -0.4481 -0.7856 0.4267
vn -0.3977 -0.0757 0.9144
vn -0.4481 0.7856 0.4266
vn 0.4481 -0.7856 -0.4267
vn 0.3978 -0.0757 -0.9143
vn 0.4481 0.7856 -0.4267
vn -0.4481 -0.7856 -0.4267
vn -0.4481 0.7856 -0.4266
s 1
f 93/79/108 58/80/109 87/81/110
f 107/82/111 86/83/112 101/84/113
f 78/85/114 92/86/114 106/87/114
f 66/88/115 72/89/116 59/90/117
f 79/91/118 100/92/119 73/93/120
f 60/94/121 63/95/122 57/96/123
f 58/80/109 61/97/124 60/98/125
f 59/90/117 61/99/126 62/100/127
f 64/101/128 68/102/129 70/103/130
f 69/104/131 67/105/132 65/106/133
f 66/88/115 68/107/134 69/108/135
f 74/109/136 77/110/137 71/111/138
f 72/89/116 75/112/139 74/113/140
f 73/93/120 75/114/141 76/115/142
f 81/116/143 84/117/144 78/85/145
f 79/91/118 82/118/146 81/119/147
f 80/120/148 82/121/149 83/122/150
f 88/123/151 91/124/152 85/125/153
f 86/83/112 89/126/154 88/123/155
f 87/81/110 89/126/156 90/127/157
f 95/128/158 98/129/159 92/86/160
f 93/79/108 96/130/161 95/131/162
f 94/132/163 96/130/164 97/133/165
f 102/134/166 105/135/167 99/136/168
f 100/92/119 103/137/169 102/138/170
f 101/84/113 103/137/171 104/139/172
f 109/140/173 112/141/174 106/87/175
f 107/82/111 110/142/176 109/140/177
f 108/143/178 110/142/179 111/144/180
f 57/96/181 74/109/181 71/111/181
f 63/145/182 72/89/116 74/113/140
f 64/101/128 62/146/183 58/80/109
f 70/147/184 59/90/117 62/100/127
f 78/85/185 69/104/185 65/106/185
f 84/148/186 66/88/115 69/108/135
f 73/93/120 83/122/187 79/91/118
f 83/122/150 72/89/116 80/120/148
f 71/111/188 102/134/189 99/136/189
f 77/149/190 100/92/119 102/138/170
f 106/87/191 81/116/191 78/85/191
f 112/150/192 79/91/118 81/119/147
f 101/84/113 111/144/193 107/82/111
f 104/139/194 108/143/178 111/144/180
f 99/136/195 88/123/195 85/125/195
f 105/135/196 86/83/112 88/123/155
f 92/86/197 109/140/197 106/87/197
f 98/129/198 107/82/111 109/140/177
f 87/81/110 97/133/199 93/79/108
f 97/133/165 86/83/112 94/132/163
f 85/125/200 60/94/200 57/96/200
f 91/151/201 58/80/109 60/98/125
f 65/106/202 95/128/202 92/86/202
f 67/152/203 93/79/108 95/131/162
f 99/136/204 57/96/204 71/111/204
f 93/79/108 64/101/128 58/80/109
f 107/82/111 94/132/163 86/83/112
f 78/85/114 65/106/114 92/86/114
f 66/88/115 80/120/148 72/89/116
f 79/91/118 108/143/178 100/92/119
f 60/94/121 61/153/205 63/95/122
f 58/80/109 62/146/183 61/97/124
f 59/90/117 63/145/182 61/99/126
f 64/101/128 67/152/203 68/102/129
f 69/104/131 68/154/206 67/105/132
f 66/88/115 70/147/184 68/107/134
f 74/109/136 75/155/207 77/110/137
f 72/89/116 76/115/208 75/112/139
f 73/93/120 77/149/190 75/114/141
f 81/116/143 82/156/209 84/117/144
f 79/91/118 83/122/187 82/118/146
f 80/120/148 84/148/186 82/121/149
f 88/123/151 89/126/210 91/124/152
f 86/83/112 90/127/211 89/126/154
f 87/81/110 91/151/201 89/126/156
f 95/128/158 96/130/212 98/129/159
f 93/79/108 97/133/199 96/130/161
f 94/132/163 98/129/198 96/130/164
f 102/134/166 103/137/213 105/135/167
f 100/92/119 104/139/194 103/137/169
f 101/84/113 105/135/196 103/137/171
f 109/140/173 110/142/214 112/141/174
f 107/82/111 111/144/193 110/142/176
f 108/143/178 112/150/192 110/142/179
f 57/96/181 63/95/181 74/109/181
f 63/145/182 59/90/117 72/89/116
f 64/101/128 70/103/130 62/146/183
f 70/147/184 66/88/115 59/90/117
f 78/85/185 84/117/185 69/104/185
f 84/148/186 80/120/148 66/88/115
f 73/93/120 76/115/142 83/122/187
f 83/122/150 76/115/208 72/89/116
f 71/111/188 77/110/188 102/134/189
f 77/149/190 73/93/120 100/92/119
f 106/87/191 112/141/191 81/116/191
f 112/150/192 108/143/178 79/91/118
f 101/84/113 104/139/172 111/144/193
f 104/139/194 100/92/119 108/143/178
f 99/136/195 105/135/195 88/123/195
f 105/135/196 101/84/113 86/83/112
f 92/86/197 98/129/197 109/140/197
f 98/129/198 94/132/163 107/82/111
f 87/81/110 90/127/157 97/133/199
f 97/133/165 90/127/211 86/83/112
f 85/125/200 91/124/200 60/94/200
f 91/151/201 87/81/110 58/80/109
f 65/106/202 67/105/202 95/128/202
f 67/152/203 64/101/128 93/79/108
f 99/136/204 85/125/204 57/96/204
