# Blender v2.92.0 OBJ File: 'Beach House.blend'
# www.blender.org
o swimring_02_Torus.001
v 0.995403 5.079862 -6.884520
v 1.073333 5.079862 -6.863638
v 1.130382 5.079862 -6.806590
v 1.180513 5.079862 -6.688053
v 1.157848 5.079862 -6.607431
v 1.090325 5.079862 -6.539058
v 0.997324 5.079862 -6.513905
v 0.904324 5.079862 -6.539058
v 0.843885 5.079862 -6.597853
v 0.839543 5.079862 -6.728660
v 0.860424 5.079862 -6.806590
v 0.917473 5.079862 -6.863638
v 0.995403 5.341995 -6.819909
v 1.073333 5.332292 -6.801420
v 1.130382 5.305779 -6.750906
v 1.180513 5.250693 -6.645947
v 1.157848 5.213226 -6.574559
v 1.090325 5.181451 -6.514018
v 0.997324 5.169763 -6.491747
v 0.904324 5.181451 -6.514018
v 0.843885 5.208775 -6.566079
v 0.839543 5.269564 -6.681902
v 0.860424 5.305779 -6.750906
v 0.917473 5.332292 -6.801420
v 0.995403 5.544077 -6.640880
v 1.073333 5.526893 -6.629018
v 1.130382 5.479942 -6.596611
v 1.180513 5.382389 -6.529274
v 1.157848 5.316038 -6.483476
v 1.090325 5.259768 -6.444635
v 0.997324 5.239068 -6.430347
v 0.904324 5.259768 -6.444635
v 0.843885 5.308156 -6.478035
v 0.839543 5.415807 -6.552341
v 0.860424 5.479942 -6.596611
v 0.917473 5.526893 -6.629018
v 0.995403 5.639813 -6.388445
v 1.073333 5.619084 -6.385929
v 1.130382 5.562451 -6.379052
v 1.180513 5.444779 -6.364764
v 1.157848 5.364745 -6.355046
v 1.090325 5.296870 -6.346805
v 0.997324 5.271902 -6.343773
v 0.904324 5.296870 -6.346805
v 0.843885 5.355237 -6.353892
v 0.839543 5.485090 -6.369659
v 0.860424 5.562451 -6.379052
v 0.917473 5.619084 -6.385929
v 0.995403 5.607271 -6.120435
v 1.073333 5.587747 -6.127840
v 1.130382 5.534405 -6.148069
v 1.180513 5.423571 -6.190103
v 1.157848 5.348188 -6.218692
v 1.090325 5.284258 -6.242938
v 0.997324 5.260741 -6.251856
v 0.904324 5.284258 -6.242938
v 0.843885 5.339233 -6.222088
v 0.839543 5.461539 -6.175704
v 0.860424 5.534405 -6.148069
v 0.917473 5.587747 -6.127840
v 0.995403 5.453906 -5.898247
v 1.073333 5.440059 -5.913877
v 1.130382 5.402228 -5.956578
v 1.180513 5.323624 -6.045304
v 1.157848 5.270162 -6.105650
v 1.090325 5.224822 -6.156828
v 0.997324 5.208143 -6.175655
v 0.904324 5.224822 -6.156828
v 0.843885 5.263811 -6.112819
v 0.839543 5.350551 -6.014910
v 0.860424 5.402228 -5.956578
v 0.917473 5.440059 -5.913877
v 0.995403 5.214851 -5.772781
v 1.073333 5.209854 -5.793056
v 1.130382 5.196201 -5.848447
v 1.180513 5.167833 -5.963539
v 1.157848 5.148540 -6.041818
v 1.090325 5.132176 -6.108204
v 0.997324 5.126157 -6.132626
v 0.904324 5.132176 -6.108204
v 0.843885 5.146247 -6.051117
v 0.839543 5.177551 -5.924112
v 0.860424 5.196201 -5.848447
v 0.917473 5.209854 -5.793056
v 0.995403 4.944872 -5.772781
v 1.073333 4.949870 -5.793056
v 1.130382 4.963522 -5.848447
v 1.180513 4.991890 -5.963539
v 1.157848 5.011184 -6.041818
v 1.090325 5.027547 -6.108205
v 0.997324 5.033566 -6.132626
v 0.904324 5.027547 -6.108205
v 0.843885 5.013476 -6.051117
v 0.839543 4.982172 -5.924112
v 0.860424 4.963522 -5.848447
v 0.917473 4.949870 -5.793056
v 0.995403 4.705818 -5.898247
v 1.073333 4.719665 -5.913877
v 1.130382 4.757495 -5.956578
v 1.180513 4.836099 -6.045304
v 1.157848 4.889562 -6.105650
v 1.090325 4.934901 -6.156828
v 0.997324 4.951581 -6.175655
v 0.904324 4.934901 -6.156828
v 0.843885 4.895913 -6.112819
v 0.839543 4.809172 -6.014910
v 0.860424 4.757495 -5.956578
v 0.917473 4.719665 -5.913877
v 0.995403 4.552452 -6.120435
v 1.073333 4.571977 -6.127840
v 1.130382 4.625318 -6.148069
v 1.180513 4.736152 -6.190103
v 1.157848 4.811534 -6.218692
v 1.090325 4.875464 -6.242938
v 0.997324 4.898983 -6.251856
v 0.904324 4.875464 -6.242938
v 0.843885 4.820490 -6.222088
v 0.839543 4.698184 -6.175704
v 0.860424 4.625318 -6.148069
v 0.917473 4.571977 -6.127840
v 0.995403 4.519910 -6.388445
v 1.073333 4.540639 -6.385929
v 1.130382 4.597272 -6.379052
v 1.180513 4.714944 -6.364764
v 1.157848 4.794978 -6.355046
v 1.090325 4.862853 -6.346805
v 0.997324 4.887822 -6.343773
v 0.904324 4.862853 -6.346805
v 0.843885 4.804486 -6.353892
v 0.839543 4.674634 -6.369659
v 0.860424 4.597272 -6.379052
v 0.917473 4.540639 -6.385929
v 0.995403 4.615645 -6.640880
v 1.073333 4.632831 -6.629018
v 1.130382 4.679780 -6.596611
v 1.180513 4.777335 -6.529274
v 1.157848 4.843685 -6.483476
v 1.090325 4.899955 -6.444635
v 0.997324 4.920655 -6.430347
v 0.904324 4.899955 -6.444635
v 0.843885 4.851567 -6.478035
v 0.839543 4.743916 -6.552341
v 0.860424 4.679780 -6.596611
v 0.917473 4.632831 -6.629018
v 0.995403 4.817728 -6.819909
v 1.073333 4.827432 -6.801420
v 1.130382 4.853943 -6.750906
v 1.180513 4.909030 -6.645947
v 1.157848 4.946497 -6.574559
v 1.090325 4.978272 -6.514018
v 0.997324 4.989961 -6.491746
v 0.904324 4.978272 -6.514018
v 0.843885 4.950948 -6.566079
v 0.839543 4.890160 -6.681902
v 0.860424 4.853943 -6.750906
v 0.917473 4.827432 -6.801420
vt 0.769231 0.500000
vt 0.692308 0.583333
vt 0.692308 0.500000
vt 0.769231 0.666667
vt 0.692308 0.666667
vt 0.692308 0.750000
vt 0.769231 0.750000
vt 0.692308 0.833333
vt 0.769231 0.833333
vt 0.692308 0.916667
vt 0.769231 1.000000
vt 0.692308 1.000000
vt 0.769231 0.000000
vt 0.692308 0.083333
vt 0.692308 0.000000
vt 0.769231 0.083333
vt 0.692308 0.166667
vt 0.769231 0.250000
vt 0.692308 0.250000
vt 0.692308 0.333333
vt 0.769231 0.416667
vt 0.692308 0.416667
vt 0.846154 0.500000
vt 0.769231 0.583333
vt 0.846154 0.583333
vt 0.846154 0.666667
vt 0.846154 0.750000
vt 0.846154 0.916667
vt 0.769231 0.916667
vt 0.846154 0.000000
vt 0.846154 0.083333
vt 0.769231 0.166667
vt 0.846154 0.250000
vt 0.769231 0.333333
vt 0.846154 0.333333
vt 0.923077 0.583333
vt 0.923077 0.666667
vt 0.923077 0.750000
vt 0.846154 0.833333
vt 0.923077 0.916667
vt 0.846154 1.000000
vt 0.923077 0.083333
vt 0.846154 0.166667
vt 0.923077 0.250000
vt 0.923077 0.333333
vt 0.846154 0.416667
vt 0.923077 0.416667
vt 0.153846 0.500000
vt 0.230769 0.583333
vt 0.153846 0.583333
vt 0.153846 0.666667
vt 0.230769 0.750000
vt 0.153846 0.750000
vt 0.153846 0.833333
vt 0.230769 0.833333
vt 0.153846 0.916667
vt 0.230769 0.916667
vt 0.153846 1.000000
vt 0.230769 0.000000
vt 0.153846 0.083333
vt 0.153846 0.000000
vt 0.230769 0.083333
vt 0.153846 0.166667
vt 0.230769 0.166667
vt 0.153846 0.250000
vt 0.230769 0.250000
vt 0.153846 0.333333
vt 0.230769 0.333333
vt 0.153846 0.416667
vt 0.230769 0.500000
vt 0.307692 0.583333
vt 0.230769 0.666667
vt 0.307692 0.750000
vt 0.307692 0.833333
vt 0.307692 0.916667
vt 0.230769 1.000000
vt 0.307692 0.000000
vt 0.307692 0.083333
vt 0.307692 0.166667
vt 0.307692 0.250000
vt 0.307692 0.333333
vt 0.230769 0.416667
vt 0.307692 0.416667
vt 0.384615 0.500000
vt 0.307692 0.500000
vt 0.384615 0.583333
vt 0.307692 0.666667
vt 0.384615 0.750000
vt 0.384615 0.833333
vt 0.384615 0.916667
vt 0.307692 1.000000
vt 0.384615 0.083333
vt 0.384615 0.166667
vt 0.384615 0.250000
vt 0.384615 0.333333
vt 0.384615 0.416667
vt 0.461538 0.583333
vt 0.461538 0.666667
vt 0.384615 0.666667
vt 0.461538 0.750000
vt 0.461538 0.916667
vt 0.461538 1.000000
vt 0.384615 1.000000
vt 0.461538 0.000000
vt 0.384615 0.000000
vt 0.461538 0.083333
vt 0.461538 0.166667
vt 0.461538 0.333333
vt 0.461538 0.416667
vt 0.923077 0.500000
vt 0.923077 0.833333
vt 0.923077 1.000000
vt 0.923077 0.000000
vt 0.923077 0.166667
vt 0.461538 0.500000
vt 0.461538 0.833333
vt 0.461538 0.250000
vt 0.615385 0.500000
vt 0.538462 0.583333
vt 0.538462 0.500000
vt 0.615385 0.583333
vt 0.538462 0.666667
vt 0.615385 0.750000
vt 0.538462 0.750000
vt 0.538462 0.833333
vt 0.615385 0.833333
vt 0.538462 0.916667
vt 0.615385 0.916667
vt 0.538462 1.000000
vt 0.615385 0.000000
vt 0.538462 0.083333
vt 0.538462 0.000000
vt 0.615385 0.083333
vt 0.538462 0.166667
vt 0.615385 0.166667
vt 0.538462 0.250000
vt 0.615385 0.250000
vt 0.538462 0.333333
vt 0.615385 0.333333
vt 0.538462 0.416667
vt 0.615385 0.416667
vt 0.615385 0.666667
vt 0.615385 1.000000
vt 1.000000 0.583333
vt 1.000000 0.666667
vt 1.000000 0.750000
vt 1.000000 0.916667
vt 1.000000 0.000000
vt 1.000000 0.083333
vt 1.000000 0.250000
vt 1.000000 0.333333
vt 1.000000 0.416667
vt 0.076923 0.500000
vt -0.000000 0.583333
vt -0.000000 0.500000
vt 0.076923 0.583333
vt -0.000000 0.666667
vt 0.076923 0.666667
vt -0.000000 0.750000
vt 0.076923 0.750000
vt -0.000000 0.833333
vt 0.076923 0.833333
vt -0.000000 0.916667
vt 0.076923 0.916667
vt -0.000000 1.000000
vt 0.076923 0.000000
vt -0.000000 0.083333
vt -0.000000 0.000000
vt 0.076923 0.083333
vt -0.000000 0.166667
vt 0.076923 0.250000
vt -0.000000 0.250000
vt 0.076923 0.333333
vt -0.000000 0.333333
vt 0.076923 0.416667
vt -0.000000 0.416667
vt 0.076923 1.000000
vt 0.076923 0.166667
vt 1.000000 0.500000
vt 1.000000 0.833333
vt 1.000000 1.000000
vt 1.000000 0.166667
vn -0.0000 0.9927 -0.1205
vn 0.4836 0.7203 -0.4972
vn 0.0000 0.8230 -0.5681
vn 0.8159 0.5740 -0.0697
vn 0.8159 0.4758 -0.3285
vn 0.9210 0.3206 -0.2213
vn 0.9627 -0.2687 0.0326
vn 0.8812 -0.3891 0.2686
vn 0.9627 -0.2227 0.1537
vn 0.8812 -0.4694 0.0570
vn 0.5218 -0.7020 0.4846
vn 0.0000 -0.9927 0.1205
vn -0.0000 -0.8230 0.5681
vn -0.5123 -0.7068 0.4879
vn -0.5123 -0.8526 0.1035
vn -0.6973 -0.5899 0.4072
vn -0.9994 -0.0273 0.0188
vn -0.9907 0.1353 -0.0164
vn -0.9907 0.1121 -0.0774
vn -0.9659 0.2130 -0.1470
vn -0.7071 0.5819 -0.4017
vn -0.4836 0.8689 -0.1055
vn -0.4836 0.7203 -0.4972
vn 0.0000 0.9350 0.3546
vn 0.4836 0.8689 -0.1055
vn 0.4836 0.8184 0.3104
vn 0.8159 0.5406 0.2050
vn 0.9210 0.3867 -0.0470
vn 0.9627 -0.2531 -0.0960
vn 0.5218 -0.7976 -0.3025
vn 0.5218 -0.8468 0.1028
vn -0.0000 -0.9350 -0.3546
vn -0.5123 -0.8030 -0.3045
vn -0.6973 -0.7116 0.0864
vn -0.9994 -0.0329 0.0040
vn -0.9907 0.1274 0.0483
vn -0.9659 0.2569 -0.0312
vn -0.7071 0.6612 0.2507
vn -0.7071 0.7019 -0.0852
vn 0.4836 0.5804 0.6552
vn 0.8159 0.3834 0.4328
vn 0.9210 0.3642 0.1381
vn 0.9627 -0.1795 -0.2026
vn 0.8812 -0.4421 -0.1677
vn 0.5218 -0.5657 -0.6385
vn -0.5123 -0.5695 -0.6428
vn -0.6973 -0.6702 -0.2542
vn -0.9994 -0.0310 -0.0118
vn -0.9907 0.0903 0.1020
vn -0.9659 0.2420 0.0918
vn -0.7071 0.4689 0.5293
vn -0.4836 0.8184 0.3104
vn -0.4836 0.5804 0.6552
vn 0.0000 -0.6631 0.7485
vn 0.4836 -0.8184 0.3104
vn 0.4836 -0.5804 0.6552
vn 0.8159 -0.3834 0.4328
vn 0.9210 -0.3642 0.1381
vn 0.9210 -0.2583 0.2916
vn 0.9627 0.2531 -0.0960
vn 0.8812 0.3135 -0.3539
vn 0.9627 0.1795 -0.2026
vn 0.8812 0.4421 -0.1677
vn 0.5218 0.5657 -0.6385
vn 0.5218 0.7976 -0.3025
vn 0.0000 0.6631 -0.7485
vn -0.0000 0.9350 -0.3546
vn -0.5123 0.5695 -0.6428
vn -0.5123 0.8030 -0.3045
vn -0.6973 0.4753 -0.5365
vn -0.9994 0.0310 -0.0118
vn -0.9907 -0.0903 0.1020
vn -0.9994 0.0220 -0.0248
vn -0.9907 -0.1274 0.0483
vn -0.9659 -0.1716 0.1937
vn -0.7071 -0.6612 0.2507
vn -0.4836 -0.5804 0.6552
vn -0.7071 -0.4689 0.5293
vn 0.0000 -0.9350 0.3546
vn 0.4836 -0.8689 -0.1055
vn 0.8159 -0.5406 0.2050
vn 0.9210 -0.3867 -0.0470
vn 0.9627 0.2687 0.0326
vn 0.8812 0.4694 0.0570
vn 0.5218 0.8468 0.1028
vn -0.0000 0.9927 0.1205
vn -0.5123 0.8526 0.1035
vn -0.6973 0.6702 -0.2542
vn -0.9994 0.0329 0.0040
vn -0.9907 -0.1353 -0.0164
vn -0.9659 -0.2420 0.0918
vn -0.7071 -0.7019 -0.0852
vn -0.4836 -0.8184 0.3104
vn -0.4836 -0.8689 -0.1055
vn 0.0000 -0.8230 -0.5681
vn 0.0000 -0.9927 -0.1205
vn 0.4836 -0.7203 -0.4972
vn 0.8159 -0.5740 -0.0697
vn 0.9210 -0.3206 -0.2213
vn 0.8812 0.3891 0.2686
vn 0.5218 0.7020 0.4846
vn -0.5123 0.7068 0.4879
vn -0.6973 0.7116 0.0864
vn -0.9994 0.0273 0.0188
vn -0.9907 -0.1121 -0.0774
vn -0.9659 -0.2569 -0.0312
vn -0.7071 -0.5819 -0.4017
vn -0.4836 -0.7203 -0.4972
vn 0.4836 -0.4068 -0.7750
vn 0.8159 -0.2687 -0.5120
vn 0.8159 -0.4759 -0.3285
vn 0.9210 -0.1810 -0.3449
vn 0.9627 0.1258 0.2396
vn 0.9627 0.2227 0.1537
vn 0.5218 0.3964 0.7553
vn 0.0000 0.4647 0.8855
vn 0.0000 0.8230 0.5681
vn -0.5123 0.3991 0.7605
vn -0.6973 0.5899 0.4072
vn -0.9994 0.0154 0.0294
vn -0.9659 -0.1203 -0.2292
vn -0.9659 -0.2130 -0.1470
vn -0.7071 -0.3286 -0.6261
vn -0.4836 -0.4068 -0.7750
vn 0.0000 0.6631 0.7485
vn 0.9210 0.2583 0.2916
vn 0.8812 -0.3135 -0.3539
vn 0.0000 -0.6631 -0.7485
vn -0.6973 -0.4753 -0.5365
vn -0.9994 -0.0220 -0.0248
vn -0.9659 0.1716 0.1937
vn 0.0000 -0.4647 -0.8855
vn 0.8812 0.2197 0.4187
vn -0.6973 0.3331 0.6347
vn -0.9907 -0.0633 -0.1206
vn 0.0000 0.4647 -0.8855
vn 0.4836 -0.0000 -0.8753
vn 0.0000 0.0000 -1.0000
vn 0.4836 0.4068 -0.7750
vn 0.8159 -0.0000 -0.5782
vn 0.9210 0.1810 -0.3449
vn 0.9210 -0.0000 -0.3895
vn 0.9627 -0.1258 0.2396
vn 0.8812 -0.0000 0.4728
vn 0.9627 -0.0000 0.2706
vn 0.8812 -0.2197 0.4187
vn 0.5218 -0.0000 0.8530
vn 0.5218 -0.3964 0.7553
vn -0.0000 0.0000 1.0000
vn 0.0000 -0.4647 0.8855
vn -0.5123 0.0000 0.8588
vn -0.5123 -0.3991 0.7605
vn -0.6973 -0.0000 0.7168
vn -0.9994 -0.0154 0.0294
vn -0.9907 0.0000 -0.1362
vn -0.9994 0.0000 0.0332
vn -0.9907 0.0633 -0.1206
vn -0.9659 0.0000 -0.2588
vn -0.7071 0.3286 -0.6261
vn -0.4836 0.0000 -0.8753
vn -0.7071 0.0000 -0.7071
vn -0.4836 0.4068 -0.7750
vn 0.8159 0.2687 -0.5120
vn -0.6973 -0.3331 0.6347
vn -0.9659 0.1203 -0.2292
vn 0.4836 0.2095 0.8498
vn 0.8159 0.1384 0.5614
vn 0.9627 -0.0648 -0.2628
vn 0.5218 -0.2041 -0.8283
vn -0.0000 -0.2393 -0.9709
vn -0.5123 -0.2055 -0.8339
vn -0.9907 0.0326 0.1323
vn -0.9659 0.0619 0.2513
vn -0.7071 0.1692 0.6866
vn -0.4836 0.2095 0.8498
vn -0.0000 -0.2393 0.9709
vn 0.0000 0.2393 0.9709
vn 0.4836 -0.2095 0.8498
vn 0.8159 -0.1384 0.5614
vn 0.9210 0.0932 0.3782
vn 0.9627 0.0648 -0.2628
vn 0.8812 -0.1132 -0.4591
vn 0.8812 0.1132 -0.4591
vn 0.5218 0.2041 -0.8283
vn -0.0000 0.2393 -0.9709
vn -0.5123 0.2055 -0.8339
vn -0.6973 -0.1715 -0.6960
vn -0.9994 -0.0079 -0.0322
vn -0.9907 -0.0326 0.1323
vn -0.9659 -0.0619 0.2513
vn -0.4836 -0.2095 0.8498
vn 0.9210 -0.0932 0.3782
vn -0.6973 0.1715 -0.6960
vn -0.9994 0.0079 -0.0322
vn -0.7071 -0.1692 0.6866
s 1
f 37/1/1 26/2/2 25/3/3
f 26/2/2 39/4/4 27/5/5
f 39/4/4 28/6/6 27/5/5
f 40/7/7 29/8/8 28/6/9
f 41/9/10 30/10/11 29/8/8
f 30/10/11 43/11/12 31/12/13
f 43/13/12 32/14/14 31/15/13
f 44/16/15 33/17/16 32/14/14
f 33/17/17 46/18/18 34/19/19
f 46/18/18 35/20/20 34/19/19
f 35/20/21 48/21/22 36/22/23
f 48/21/22 25/3/3 36/22/23
f 49/23/24 38/24/25 37/1/1
f 50/25/26 39/4/4 38/24/25
f 51/26/27 40/7/28 39/4/4
f 52/27/29 41/9/10 40/7/7
f 41/9/10 54/28/30 42/29/31
f 54/28/30 43/11/12 42/29/31
f 55/30/32 44/16/15 43/13/12
f 56/31/33 45/32/34 44/16/15
f 45/32/35 58/33/36 46/18/18
f 58/33/36 47/34/37 46/18/18
f 59/35/38 48/21/22 47/34/39
f 48/21/22 49/23/24 37/1/1
f 49/23/24 62/36/40 50/25/26
f 62/36/40 51/26/27 50/25/26
f 63/37/41 52/27/42 51/26/27
f 64/38/43 53/39/44 52/27/29
f 53/39/44 66/40/45 54/28/30
f 66/40/45 55/41/32 54/28/30
f 55/30/32 68/42/46 56/31/33
f 68/42/46 57/43/47 56/31/33
f 57/43/48 70/44/49 58/33/36
f 70/44/49 59/35/50 58/33/36
f 71/45/51 60/46/52 59/35/38
f 72/47/53 49/23/24 60/46/52
f 97/48/54 110/49/55 98/50/56
f 110/49/55 99/51/57 98/50/56
f 99/51/57 112/52/58 100/53/59
f 112/52/60 101/54/61 100/53/62
f 113/55/63 102/56/64 101/54/61
f 114/57/65 103/58/66 102/56/64
f 115/59/67 104/60/68 103/61/66
f 116/62/69 105/63/70 104/60/68
f 117/64/71 106/65/72 105/63/73
f 118/66/74 107/67/75 106/65/72
f 119/68/76 108/69/77 107/67/78
f 108/69/77 109/70/79 97/48/54
f 109/70/79 122/71/80 110/49/55
f 122/71/80 111/72/81 110/49/55
f 111/72/81 124/73/82 112/52/58
f 124/73/83 113/55/63 112/52/60
f 125/74/84 114/57/65 113/55/63
f 126/75/85 115/76/67 114/57/65
f 127/77/86 116/62/69 115/59/67
f 128/78/87 117/64/88 116/62/69
f 129/79/89 118/66/74 117/64/71
f 130/80/90 119/68/91 118/66/74
f 131/81/92 120/82/93 119/68/76
f 132/83/94 109/70/79 120/82/93
f 133/84/95 122/71/80 121/85/96
f 134/86/97 123/87/98 122/71/80
f 123/87/98 136/88/99 124/73/82
f 124/73/83 137/89/100 125/74/84
f 137/89/100 126/75/85 125/74/84
f 138/90/101 127/91/86 126/75/85
f 127/77/86 140/92/102 128/78/87
f 140/92/102 129/79/103 128/78/87
f 141/93/104 130/80/90 129/79/89
f 142/94/105 131/81/106 130/80/90
f 143/95/107 132/83/94 131/81/92
f 144/96/108 121/85/96 132/83/94
f 133/84/95 146/97/109 134/86/97
f 134/86/97 147/98/110 135/99/111
f 135/99/111 148/100/112 136/88/99
f 148/100/113 137/89/100 136/88/114
f 137/89/100 150/101/115 138/90/101
f 138/90/101 151/102/116 139/103/117
f 151/104/116 140/92/102 139/105/117
f 152/106/118 141/93/119 140/92/102
f 153/107/120 142/94/105 141/93/104
f 142/94/105 155/108/121 143/95/122
f 155/108/123 144/96/108 143/95/107
f 156/109/124 133/84/95 144/96/108
f 37/1/1 38/24/25 26/2/2
f 26/2/2 38/24/25 39/4/4
f 39/4/4 40/7/28 28/6/6
f 40/7/7 41/9/10 29/8/8
f 41/9/10 42/29/31 30/10/11
f 30/10/11 42/29/31 43/11/12
f 43/13/12 44/16/15 32/14/14
f 44/16/15 45/32/34 33/17/16
f 33/17/17 45/32/35 46/18/18
f 46/18/18 47/34/37 35/20/20
f 35/20/21 47/34/39 48/21/22
f 48/21/22 37/1/1 25/3/3
f 49/23/24 50/25/26 38/24/25
f 50/25/26 51/26/27 39/4/4
f 51/26/27 52/27/42 40/7/28
f 52/27/29 53/39/44 41/9/10
f 41/9/10 53/39/44 54/28/30
f 54/28/30 55/41/32 43/11/12
f 55/30/32 56/31/33 44/16/15
f 56/31/33 57/43/47 45/32/34
f 45/32/35 57/43/48 58/33/36
f 58/33/36 59/35/50 47/34/37
f 59/35/38 60/46/52 48/21/22
f 48/21/22 60/46/52 49/23/24
f 49/23/24 61/110/125 62/36/40
f 62/36/40 63/37/41 51/26/27
f 63/37/41 64/38/126 52/27/42
f 64/38/43 65/111/127 53/39/44
f 53/39/44 65/111/127 66/40/45
f 66/40/45 67/112/128 55/41/32
f 55/30/32 67/113/128 68/42/46
f 68/42/46 69/114/129 57/43/47
f 57/43/48 69/114/130 70/44/49
f 70/44/49 71/45/131 59/35/50
f 71/45/51 72/47/53 60/46/52
f 72/47/53 61/110/125 49/23/24
f 97/48/54 109/70/79 110/49/55
f 110/49/55 111/72/81 99/51/57
f 99/51/57 111/72/81 112/52/58
f 112/52/60 113/55/63 101/54/61
f 113/55/63 114/57/65 102/56/64
f 114/57/65 115/76/67 103/58/66
f 115/59/67 116/62/69 104/60/68
f 116/62/69 117/64/88 105/63/70
f 117/64/71 118/66/74 106/65/72
f 118/66/74 119/68/91 107/67/75
f 119/68/76 120/82/93 108/69/77
f 108/69/77 120/82/93 109/70/79
f 109/70/79 121/85/96 122/71/80
f 122/71/80 123/87/98 111/72/81
f 111/72/81 123/87/98 124/73/82
f 124/73/83 125/74/84 113/55/63
f 125/74/84 126/75/85 114/57/65
f 126/75/85 127/91/86 115/76/67
f 127/77/86 128/78/87 116/62/69
f 128/78/87 129/79/103 117/64/88
f 129/79/89 130/80/90 118/66/74
f 130/80/90 131/81/106 119/68/91
f 131/81/92 132/83/94 120/82/93
f 132/83/94 121/85/96 109/70/79
f 133/84/95 134/86/97 122/71/80
f 134/86/97 135/99/111 123/87/98
f 123/87/98 135/99/111 136/88/99
f 124/73/83 136/88/114 137/89/100
f 137/89/100 138/90/101 126/75/85
f 138/90/101 139/103/117 127/91/86
f 127/77/86 139/105/117 140/92/102
f 140/92/102 141/93/119 129/79/103
f 141/93/104 142/94/105 130/80/90
f 142/94/105 143/95/122 131/81/106
f 143/95/107 144/96/108 132/83/94
f 144/96/108 133/84/95 121/85/96
f 133/84/95 145/115/132 146/97/109
f 134/86/97 146/97/109 147/98/110
f 135/99/111 147/98/110 148/100/112
f 148/100/113 149/116/133 137/89/100
f 137/89/100 149/116/133 150/101/115
f 138/90/101 150/101/115 151/102/116
f 151/104/116 152/106/118 140/92/102
f 152/106/118 153/107/134 141/93/119
f 153/107/120 154/117/135 142/94/105
f 142/94/105 154/117/135 155/108/121
f 155/108/123 156/109/124 144/96/108
f 156/109/124 145/115/132 133/84/95
f 13/118/136 2/119/137 1/120/138
f 14/121/139 3/122/140 2/119/137
f 3/122/140 16/123/141 4/124/142
f 16/123/143 5/125/144 4/124/145
f 17/126/146 6/127/147 5/125/144
f 18/128/148 7/129/149 6/127/147
f 19/130/150 8/131/151 7/132/149
f 20/133/152 9/134/153 8/131/151
f 21/135/154 10/136/155 9/134/156
f 22/137/157 11/138/158 10/136/155
f 23/139/159 12/140/160 11/138/161
f 24/141/162 1/120/138 12/140/160
f 13/118/136 26/2/2 14/121/139
f 14/121/139 27/5/5 15/142/163
f 27/5/5 16/123/141 15/142/163
f 28/6/9 17/126/146 16/123/143
f 29/8/8 18/128/148 17/126/146
f 30/10/11 19/143/150 18/128/148
f 31/15/13 20/133/152 19/130/150
f 32/14/14 21/135/164 20/133/152
f 33/17/17 22/137/157 21/135/154
f 34/19/19 23/139/165 22/137/157
f 35/20/21 24/141/162 23/139/159
f 36/22/23 13/118/136 24/141/162
f 61/110/125 74/144/166 62/36/40
f 74/144/166 63/37/41 62/36/40
f 75/145/167 64/38/126 63/37/41
f 76/146/168 65/111/127 64/38/43
f 65/111/127 78/147/169 66/40/45
f 78/147/169 67/112/128 66/40/45
f 79/148/170 68/42/46 67/113/128
f 80/149/171 69/114/129 68/42/46
f 69/114/130 82/150/172 70/44/49
f 70/44/49 83/151/173 71/45/131
f 83/151/174 72/47/53 71/45/51
f 84/152/175 61/110/125 72/47/53
f 85/153/176 74/154/166 73/155/177
f 86/156/178 75/157/167 74/154/166
f 87/158/179 76/159/180 75/157/167
f 88/160/181 77/161/182 76/159/168
f 89/162/183 78/163/169 77/161/182
f 90/164/184 79/165/170 78/163/169
f 91/166/185 80/167/171 79/168/170
f 92/169/186 81/170/187 80/167/171
f 81/170/188 94/171/189 82/172/172
f 82/172/172 95/173/190 83/174/173
f 83/174/174 96/175/191 84/176/175
f 96/175/191 73/155/177 84/176/175
f 97/48/54 86/156/178 85/153/176
f 98/50/56 87/158/179 86/156/178
f 99/51/57 88/160/192 87/158/179
f 88/160/181 101/54/61 89/162/183
f 101/54/61 90/164/184 89/162/183
f 90/164/184 103/58/66 91/177/185
f 103/61/66 92/169/186 91/166/185
f 104/60/68 93/178/193 92/169/186
f 105/63/73 94/171/189 93/178/194
f 106/65/72 95/173/190 94/171/189
f 107/67/78 96/175/191 95/173/195
f 96/175/191 97/48/54 85/153/176
f 145/115/132 2/119/137 146/97/109
f 2/119/137 147/98/110 146/97/109
f 147/98/110 4/124/142 148/100/112
f 4/124/145 149/116/133 148/100/113
f 5/125/144 150/101/115 149/116/133
f 150/101/115 7/129/149 151/102/116
f 7/132/149 152/106/118 151/104/116
f 8/131/151 153/107/134 152/106/118
f 9/134/156 154/117/135 153/107/120
f 10/136/155 155/108/121 154/117/135
f 11/138/161 156/109/124 155/108/123
f 12/140/160 145/115/132 156/109/124
f 13/118/136 14/121/139 2/119/137
f 14/121/139 15/142/163 3/122/140
f 3/122/140 15/142/163 16/123/141
f 16/123/143 17/126/146 5/125/144
f 17/126/146 18/128/148 6/127/147
f 18/128/148 19/143/150 7/129/149
f 19/130/150 20/133/152 8/131/151
f 20/133/152 21/135/164 9/134/153
f 21/135/154 22/137/157 10/136/155
f 22/137/157 23/139/165 11/138/158
f 23/139/159 24/141/162 12/140/160
f 24/141/162 13/118/136 1/120/138
f 13/118/136 25/3/3 26/2/2
f 14/121/139 26/2/2 27/5/5
f 27/5/5 28/6/6 16/123/141
f 28/6/9 29/8/8 17/126/146
f 29/8/8 30/10/11 18/128/148
f 30/10/11 31/12/13 19/143/150
f 31/15/13 32/14/14 20/133/152
f 32/14/14 33/17/16 21/135/164
f 33/17/17 34/19/19 22/137/157
f 34/19/19 35/20/20 23/139/165
f 35/20/21 36/22/23 24/141/162
f 36/22/23 25/3/3 13/118/136
f 61/110/125 73/179/177 74/144/166
f 74/144/166 75/145/167 63/37/41
f 75/145/167 76/146/180 64/38/126
f 76/146/168 77/180/182 65/111/127
f 65/111/127 77/180/182 78/147/169
f 78/147/169 79/181/170 67/112/128
f 79/148/170 80/149/171 68/42/46
f 80/149/171 81/182/187 69/114/129
f 69/114/130 81/182/188 82/150/172
f 70/44/49 82/150/172 83/151/173
f 83/151/174 84/152/175 72/47/53
f 84/152/175 73/179/177 61/110/125
f 85/153/176 86/156/178 74/154/166
f 86/156/178 87/158/179 75/157/167
f 87/158/179 88/160/192 76/159/180
f 88/160/181 89/162/183 77/161/182
f 89/162/183 90/164/184 78/163/169
f 90/164/184 91/177/185 79/165/170
f 91/166/185 92/169/186 80/167/171
f 92/169/186 93/178/193 81/170/187
f 81/170/188 93/178/194 94/171/189
f 82/172/172 94/171/189 95/173/190
f 83/174/174 95/173/195 96/175/191
f 96/175/191 85/153/176 73/155/177
f 97/48/54 98/50/56 86/156/178
f 98/50/56 99/51/57 87/158/179
f 99/51/57 100/53/59 88/160/192
f 88/160/181 100/53/62 101/54/61
f 101/54/61 102/56/64 90/164/184
f 90/164/184 102/56/64 103/58/66
f 103/61/66 104/60/68 92/169/186
f 104/60/68 105/63/70 93/178/193
f 105/63/73 106/65/72 94/171/189
f 106/65/72 107/67/75 95/173/190
f 107/67/78 108/69/77 96/175/191
f 96/175/191 108/69/77 97/48/54
f 145/115/132 1/120/138 2/119/137
f 2/119/137 3/122/140 147/98/110
f 147/98/110 3/122/140 4/124/142
f 4/124/145 5/125/144 149/116/133
f 5/125/144 6/127/147 150/101/115
f 150/101/115 6/127/147 7/129/149
f 7/132/149 8/131/151 152/106/118
f 8/131/151 9/134/153 153/107/134
f 9/134/156 10/136/155 154/117/135
f 10/136/155 11/138/158 155/108/121
f 11/138/161 12/140/160 156/109/124
f 12/140/160 1/120/138 145/115/132
