# Blender v2.92.0 OBJ File: 'Beach House.blend'
# www.blender.org
o swimring_01_Torus
v 0.995403 5.079862 -5.489307
v 1.073333 5.079862 -5.468426
v 1.130382 5.079862 -5.411377
v 1.180513 5.079862 -5.292840
v 1.157848 5.079862 -5.212219
v 1.090325 5.079862 -5.143846
v 0.997324 5.079862 -5.118693
v 0.904324 5.079862 -5.143846
v 0.843885 5.079862 -5.202641
v 0.839543 5.079862 -5.333447
v 0.860424 5.079862 -5.411377
v 0.917473 5.079862 -5.468426
v 0.995403 5.341995 -5.424697
v 1.073333 5.332292 -5.406208
v 1.130382 5.305779 -5.355693
v 1.180513 5.250693 -5.250734
v 1.157848 5.213226 -5.179347
v 1.090325 5.181451 -5.118806
v 0.997324 5.169763 -5.096535
v 0.904324 5.181451 -5.118806
v 0.843885 5.208775 -5.170867
v 0.839543 5.269564 -5.286690
v 0.860424 5.305779 -5.355693
v 0.917473 5.332292 -5.406208
v 0.995403 5.544077 -5.245668
v 1.073333 5.526893 -5.233806
v 1.130382 5.479942 -5.201399
v 1.180513 5.382389 -5.134062
v 1.157848 5.316038 -5.088264
v 1.090325 5.259768 -5.049423
v 0.997324 5.239068 -5.035135
v 0.904324 5.259768 -5.049423
v 0.843885 5.308156 -5.082823
v 0.839543 5.415807 -5.157129
v 0.860424 5.479942 -5.201399
v 0.917473 5.526893 -5.233806
v 0.995403 5.639813 -4.993233
v 1.073333 5.619084 -4.990716
v 1.130382 5.562451 -4.983840
v 1.180513 5.444779 -4.969552
v 1.157848 5.364745 -4.959834
v 1.090325 5.296870 -4.951592
v 0.997324 5.271902 -4.948561
v 0.904324 5.296870 -4.951592
v 0.843885 5.355237 -4.958680
v 0.839543 5.485090 -4.974447
v 0.860424 5.562451 -4.983840
v 0.917473 5.619084 -4.990716
v 0.995403 5.607271 -4.725223
v 1.073333 5.587747 -4.732627
v 1.130382 5.534405 -4.752857
v 1.180513 5.423571 -4.794891
v 1.157848 5.348188 -4.823480
v 1.090325 5.284258 -4.847725
v 0.997324 5.260741 -4.856644
v 0.904324 5.284258 -4.847725
v 0.843885 5.339233 -4.826876
v 0.839543 5.461539 -4.780491
v 0.860424 5.534405 -4.752857
v 0.917473 5.587747 -4.732627
v 0.995403 5.453906 -4.503035
v 1.073333 5.440059 -4.518664
v 1.130382 5.402228 -4.561366
v 1.180513 5.323624 -4.650092
v 1.157848 5.270162 -4.710438
v 1.090325 5.224822 -4.761616
v 0.997324 5.208143 -4.780443
v 0.904324 5.224822 -4.761616
v 0.843885 5.263811 -4.717607
v 0.839543 5.350551 -4.619698
v 0.860424 5.402228 -4.561366
v 0.917473 5.440059 -4.518664
v 0.995403 5.214851 -4.377569
v 1.073333 5.209854 -4.397844
v 1.130382 5.196201 -4.453235
v 1.180513 5.167833 -4.568327
v 1.157848 5.148540 -4.646606
v 1.090325 5.132176 -4.712992
v 0.997324 5.126157 -4.737414
v 0.904324 5.132176 -4.712992
v 0.843885 5.146247 -4.655905
v 0.839543 5.177551 -4.528900
v 0.860424 5.196201 -4.453235
v 0.917473 5.209854 -4.397844
v 0.995403 4.944872 -4.377569
v 1.073333 4.949870 -4.397844
v 1.130382 4.963522 -4.453235
v 1.180513 4.991890 -4.568327
v 1.157848 5.011184 -4.646606
v 1.090325 5.027547 -4.712993
v 0.997324 5.033566 -4.737414
v 0.904324 5.027547 -4.712993
v 0.843885 5.013476 -4.655905
v 0.839543 4.982172 -4.528900
v 0.860424 4.963522 -4.453235
v 0.917473 4.949870 -4.397844
v 0.995403 4.705818 -4.503035
v 1.073333 4.719665 -4.518664
v 1.130382 4.757495 -4.561366
v 1.180513 4.836099 -4.650092
v 1.157848 4.889562 -4.710438
v 1.090325 4.934901 -4.761616
v 0.997324 4.951581 -4.780443
v 0.904324 4.934901 -4.761616
v 0.843885 4.895913 -4.717607
v 0.839543 4.809172 -4.619698
v 0.860424 4.757495 -4.561366
v 0.917473 4.719665 -4.518664
v 0.995403 4.552452 -4.725223
v 1.073333 4.571977 -4.732627
v 1.130382 4.625318 -4.752857
v 1.180513 4.736152 -4.794891
v 1.157848 4.811534 -4.823480
v 1.090325 4.875464 -4.847725
v 0.997324 4.898983 -4.856644
v 0.904324 4.875464 -4.847725
v 0.843885 4.820490 -4.826876
v 0.839543 4.698184 -4.780491
v 0.860424 4.625318 -4.752857
v 0.917473 4.571977 -4.732627
v 0.995403 4.519910 -4.993233
v 1.073333 4.540639 -4.990716
v 1.130382 4.597272 -4.983840
v 1.180513 4.714944 -4.969552
v 1.157848 4.794978 -4.959834
v 1.090325 4.862853 -4.951592
v 0.997324 4.887822 -4.948561
v 0.904324 4.862853 -4.951592
v 0.843885 4.804486 -4.958680
v 0.839543 4.674634 -4.974447
v 0.860424 4.597272 -4.983840
v 0.917473 4.540639 -4.990716
v 0.995403 4.615645 -5.245667
v 1.073333 4.632831 -5.233806
v 1.130382 4.679780 -5.201398
v 1.180513 4.777335 -5.134062
v 1.157848 4.843685 -5.088264
v 1.090325 4.899955 -5.049423
v 0.997324 4.920655 -5.035135
v 0.904324 4.899955 -5.049423
v 0.843885 4.851567 -5.082823
v 0.839543 4.743916 -5.157129
v 0.860424 4.679780 -5.201398
v 0.917473 4.632831 -5.233806
v 0.995403 4.817728 -5.424697
v 1.073333 4.827432 -5.406208
v 1.130382 4.853943 -5.355693
v 1.180513 4.909030 -5.250734
v 1.157848 4.946497 -5.179347
v 1.090325 4.978272 -5.118806
v 0.997324 4.989961 -5.096534
v 0.904324 4.978272 -5.118806
v 0.843885 4.950948 -5.170867
v 0.839543 4.890160 -5.286690
v 0.860424 4.853943 -5.355693
v 0.917473 4.827432 -5.406208
vt 0.769231 0.500000
vt 0.692308 0.583333
vt 0.692308 0.500000
vt 0.769231 0.666667
vt 0.692308 0.666667
vt 0.692308 0.750000
vt 0.769231 0.750000
vt 0.692308 0.833333
vt 0.769231 0.833333
vt 0.692308 0.916667
vt 0.769231 1.000000
vt 0.692308 1.000000
vt 0.769231 0.000000
vt 0.692308 0.083333
vt 0.692308 0.000000
vt 0.769231 0.083333
vt 0.692308 0.166667
vt 0.769231 0.250000
vt 0.692308 0.250000
vt 0.692308 0.333333
vt 0.769231 0.416667
vt 0.692308 0.416667
vt 0.846154 0.500000
vt 0.769231 0.583333
vt 0.846154 0.583333
vt 0.846154 0.666667
vt 0.846154 0.750000
vt 0.846154 0.916667
vt 0.769231 0.916667
vt 0.846154 0.000000
vt 0.846154 0.083333
vt 0.769231 0.166667
vt 0.846154 0.250000
vt 0.769231 0.333333
vt 0.846154 0.333333
vt 0.923077 0.583333
vt 0.923077 0.666667
vt 0.923077 0.750000
vt 0.846154 0.833333
vt 0.923077 0.916667
vt 0.846154 1.000000
vt 0.923077 0.083333
vt 0.846154 0.166667
vt 0.923077 0.250000
vt 0.923077 0.333333
vt 0.846154 0.416667
vt 0.923077 0.416667
vt 0.153846 0.500000
vt 0.230769 0.583333
vt 0.153846 0.583333
vt 0.153846 0.666667
vt 0.230769 0.750000
vt 0.153846 0.750000
vt 0.153846 0.833333
vt 0.230769 0.833333
vt 0.153846 0.916667
vt 0.230769 0.916667
vt 0.153846 1.000000
vt 0.230769 0.000000
vt 0.153846 0.083333
vt 0.153846 0.000000
vt 0.230769 0.083333
vt 0.153846 0.166667
vt 0.230769 0.166667
vt 0.153846 0.250000
vt 0.230769 0.250000
vt 0.153846 0.333333
vt 0.230769 0.333333
vt 0.153846 0.416667
vt 0.230769 0.500000
vt 0.307692 0.583333
vt 0.230769 0.666667
vt 0.307692 0.750000
vt 0.307692 0.833333
vt 0.307692 0.916667
vt 0.230769 1.000000
vt 0.307692 0.000000
vt 0.307692 0.083333
vt 0.307692 0.166667
vt 0.307692 0.250000
vt 0.307692 0.333333
vt 0.230769 0.416667
vt 0.307692 0.416667
vt 0.384615 0.500000
vt 0.307692 0.500000
vt 0.384615 0.583333
vt 0.307692 0.666667
vt 0.384615 0.750000
vt 0.384615 0.833333
vt 0.384615 0.916667
vt 0.307692 1.000000
vt 0.384615 0.083333
vt 0.384615 0.166667
vt 0.384615 0.250000
vt 0.384615 0.333333
vt 0.384615 0.416667
vt 0.461538 0.583333
vt 0.461538 0.666667
vt 0.384615 0.666667
vt 0.461538 0.750000
vt 0.461538 0.916667
vt 0.461538 1.000000
vt 0.384615 1.000000
vt 0.461538 0.000000
vt 0.384615 0.000000
vt 0.461538 0.083333
vt 0.461538 0.166667
vt 0.461538 0.333333
vt 0.461538 0.416667
vt 0.923077 0.500000
vt 0.923077 0.833333
vt 0.923077 1.000000
vt 0.923077 0.000000
vt 0.923077 0.166667
vt 0.461538 0.500000
vt 0.461538 0.833333
vt 0.461538 0.250000
vt 0.615385 0.500000
vt 0.538462 0.583333
vt 0.538462 0.500000
vt 0.615385 0.583333
vt 0.538462 0.666667
vt 0.615385 0.750000
vt 0.538462 0.750000
vt 0.538462 0.833333
vt 0.615385 0.833333
vt 0.538462 0.916667
vt 0.615385 0.916667
vt 0.538462 1.000000
vt 0.615385 0.000000
vt 0.538462 0.083333
vt 0.538462 0.000000
vt 0.615385 0.083333
vt 0.538462 0.166667
vt 0.615385 0.166667
vt 0.538462 0.250000
vt 0.615385 0.250000
vt 0.538462 0.333333
vt 0.615385 0.333333
vt 0.538462 0.416667
vt 0.615385 0.416667
vt 0.615385 0.666667
vt 0.615385 1.000000
vt 1.000000 0.583333
vt 1.000000 0.666667
vt 1.000000 0.750000
vt 1.000000 0.916667
vt 1.000000 0.000000
vt 1.000000 0.083333
vt 1.000000 0.250000
vt 1.000000 0.333333
vt 1.000000 0.416667
vt 0.076923 0.500000
vt -0.000000 0.583333
vt -0.000000 0.500000
vt 0.076923 0.583333
vt -0.000000 0.666667
vt 0.076923 0.666667
vt -0.000000 0.750000
vt 0.076923 0.750000
vt -0.000000 0.833333
vt 0.076923 0.833333
vt -0.000000 0.916667
vt 0.076923 0.916667
vt -0.000000 1.000000
vt 0.076923 0.000000
vt -0.000000 0.083333
vt -0.000000 0.000000
vt 0.076923 0.083333
vt -0.000000 0.166667
vt 0.076923 0.250000
vt -0.000000 0.250000
vt 0.076923 0.333333
vt -0.000000 0.333333
vt 0.076923 0.416667
vt -0.000000 0.416667
vt 0.076923 1.000000
vt 0.076923 0.166667
vt 1.000000 0.500000
vt 1.000000 0.833333
vt 1.000000 1.000000
vt 1.000000 0.166667
vn 0.0000 0.9927 -0.1205
vn 0.4836 0.7203 -0.4972
vn 0.0000 0.8230 -0.5680
vn 0.8159 0.5740 -0.0697
vn 0.8159 0.4758 -0.3284
vn 0.9936 0.0932 -0.0643
vn 0.9936 0.1124 -0.0136
vn 0.8811 -0.3891 0.2686
vn 0.8811 -0.4694 0.0570
vn 0.5218 -0.7020 0.4846
vn 0.0000 -0.9927 0.1205
vn 0.0000 -0.8230 0.5680
vn -0.5123 -0.7068 0.4878
vn -0.5123 -0.8525 0.1035
vn -0.9352 -0.2914 0.2011
vn -0.9907 0.1352 -0.0164
vn -0.9907 0.1121 -0.0774
vn -0.8488 0.4350 -0.3003
vn -0.4836 0.8689 -0.1055
vn -0.4836 0.7203 -0.4972
vn 0.0000 0.9350 0.3546
vn 0.4836 0.8689 -0.1055
vn 0.4836 0.8184 0.3104
vn 0.8159 0.5406 0.2050
vn 0.9936 0.1058 0.0401
vn 0.5218 -0.7976 -0.3025
vn 0.5218 -0.8468 0.1028
vn 0.0000 -0.9350 -0.3546
vn -0.5123 -0.8030 -0.3045
vn -0.9352 -0.3515 0.0427
vn -0.9907 0.1274 0.0483
vn -0.8488 0.5248 -0.0637
vn -0.8488 0.4943 0.1874
vn 0.4836 0.5804 0.6551
vn 0.8159 0.3834 0.4328
vn 0.9936 0.0751 0.0847
vn 0.8811 -0.4421 -0.1677
vn 0.5218 -0.5657 -0.6385
vn -0.5123 -0.5695 -0.6428
vn -0.9352 -0.3311 -0.1256
vn -0.9907 0.0903 0.1020
vn -0.8488 0.3505 0.3957
vn -0.4836 0.8184 0.3104
vn -0.4836 0.5804 0.6551
vn 0.0000 -0.6631 0.7485
vn 0.4836 -0.8184 0.3104
vn 0.4836 -0.5804 0.6551
vn 0.8159 -0.3834 0.4328
vn 0.9936 -0.1058 0.0401
vn 0.9936 -0.0751 0.0847
vn 0.8811 0.3135 -0.3539
vn 0.8811 0.4421 -0.1677
vn 0.5218 0.5657 -0.6385
vn 0.5218 0.7976 -0.3025
vn 0.0000 0.6631 -0.7485
vn 0.0000 0.9350 -0.3546
vn -0.5123 0.5695 -0.6428
vn -0.5123 0.8030 -0.3045
vn -0.9352 0.2348 -0.2650
vn -0.9352 0.3311 -0.1256
vn -0.9907 -0.0903 0.1020
vn -0.9907 -0.1274 0.0483
vn -0.8488 -0.3505 0.3957
vn -0.8488 -0.4943 0.1874
vn -0.4836 -0.5804 0.6551
vn 0.0000 -0.9350 0.3546
vn 0.4836 -0.8689 -0.1055
vn 0.8159 -0.5406 0.2050
vn 0.9936 -0.1124 -0.0136
vn 0.8811 0.4694 0.0570
vn 0.5218 0.8468 0.1028
vn 0.0000 0.9927 0.1205
vn -0.5123 0.8525 0.1035
vn -0.9352 0.3515 0.0427
vn -0.9907 -0.1352 -0.0164
vn -0.8488 -0.5248 -0.0637
vn -0.4836 -0.8184 0.3104
vn -0.4836 -0.8689 -0.1055
vn 0.0000 -0.8230 -0.5680
vn 0.0000 -0.9927 -0.1205
vn 0.4836 -0.7203 -0.4972
vn 0.8159 -0.5740 -0.0697
vn 0.9936 -0.0932 -0.0643
vn 0.8811 0.3891 0.2686
vn 0.5218 0.7020 0.4846
vn -0.5123 0.7068 0.4879
vn -0.9352 0.2914 0.2011
vn -0.9907 -0.1121 -0.0774
vn -0.8488 -0.4350 -0.3003
vn -0.4836 -0.7203 -0.4972
vn 0.4836 -0.4068 -0.7750
vn 0.8159 -0.2687 -0.5119
vn 0.8159 -0.4758 -0.3284
vn 0.9936 -0.0526 -0.1003
vn 0.5218 0.3964 0.7553
vn 0.0000 0.4647 0.8854
vn 0.0000 0.8230 0.5680
vn -0.5123 0.3991 0.7604
vn -0.9352 0.1645 0.3135
vn -0.8488 -0.2456 -0.4681
vn -0.4836 -0.4068 -0.7750
vn 0.0000 0.6631 0.7485
vn 0.8811 -0.3135 -0.3539
vn 0.0000 -0.6631 -0.7485
vn -0.9352 -0.2348 -0.2650
vn 0.0000 -0.4647 -0.8854
vn 0.8811 0.2197 0.4187
vn -0.9907 -0.0633 -0.1206
vn 0.0000 0.4647 -0.8854
vn 0.4836 0.0000 -0.8753
vn 0.0000 0.0000 -1.0000
vn 0.4836 0.4068 -0.7750
vn 0.8159 0.0000 -0.5782
vn 0.9936 0.0526 -0.1003
vn 0.9936 0.0000 -0.1132
vn 0.8811 0.0000 0.4728
vn 0.8811 -0.2197 0.4187
vn 0.5218 0.0000 0.8530
vn 0.5218 -0.3964 0.7553
vn 0.0000 0.0000 1.0000
vn 0.0000 -0.4647 0.8854
vn -0.5123 0.0000 0.8588
vn -0.5123 -0.3991 0.7604
vn -0.9352 0.0000 0.3541
vn -0.9352 -0.1645 0.3135
vn -0.9907 0.0000 -0.1362
vn -0.9907 0.0633 -0.1206
vn -0.8488 0.0000 -0.5286
vn -0.8488 0.2456 -0.4681
vn -0.4836 0.0000 -0.8753
vn -0.4836 0.4068 -0.7750
vn 0.8159 0.2687 -0.5119
vn 0.4836 0.2094 0.8498
vn 0.8159 0.1384 0.5614
vn 0.9936 0.0271 0.1099
vn 0.5218 -0.2041 -0.8282
vn 0.0000 -0.2393 -0.9709
vn -0.5123 -0.2055 -0.8339
vn -0.9907 0.0326 0.1323
vn -0.8488 0.1265 0.5133
vn -0.4836 0.2094 0.8498
vn 0.0000 -0.2393 0.9709
vn 0.0000 0.2393 0.9709
vn 0.4836 -0.2094 0.8498
vn 0.8159 -0.1384 0.5614
vn 0.9936 -0.0271 0.1099
vn 0.8811 -0.1131 -0.4591
vn 0.8811 0.1131 -0.4591
vn 0.5218 0.2041 -0.8282
vn 0.0000 0.2393 -0.9709
vn -0.5123 0.2055 -0.8339
vn -0.9352 -0.0847 -0.3438
vn -0.9907 -0.0326 0.1323
vn -0.8488 -0.1265 0.5133
vn -0.4836 -0.2094 0.8498
vn -0.9352 0.0847 -0.3438
s 1
f 37/1/1 26/2/2 25/3/3
f 26/2/2 39/4/4 27/5/5
f 39/4/4 28/6/6 27/5/5
f 40/7/7 29/8/8 28/6/6
f 41/9/9 30/10/10 29/8/8
f 30/10/10 43/11/11 31/12/12
f 43/13/11 32/14/13 31/15/12
f 44/16/14 33/17/15 32/14/13
f 33/17/15 46/18/16 34/19/17
f 46/18/16 35/20/18 34/19/17
f 35/20/18 48/21/19 36/22/20
f 48/21/19 25/3/3 36/22/20
f 49/23/21 38/24/22 37/1/1
f 50/25/23 39/4/4 38/24/22
f 51/26/24 40/7/7 39/4/4
f 52/27/25 41/9/9 40/7/7
f 41/9/9 54/28/26 42/29/27
f 54/28/26 43/11/11 42/29/27
f 55/30/28 44/16/14 43/13/11
f 56/31/29 45/32/30 44/16/14
f 45/32/30 58/33/31 46/18/16
f 58/33/31 47/34/32 46/18/16
f 59/35/33 48/21/19 47/34/32
f 48/21/19 49/23/21 37/1/1
f 49/23/21 62/36/34 50/25/23
f 62/36/34 51/26/24 50/25/23
f 63/37/35 52/27/25 51/26/24
f 64/38/36 53/39/37 52/27/25
f 53/39/37 66/40/38 54/28/26
f 66/40/38 55/41/28 54/28/26
f 55/30/28 68/42/39 56/31/29
f 68/42/39 57/43/40 56/31/29
f 57/43/40 70/44/41 58/33/31
f 70/44/41 59/35/33 58/33/31
f 71/45/42 60/46/43 59/35/33
f 72/47/44 49/23/21 60/46/43
f 97/48/45 110/49/46 98/50/47
f 110/49/46 99/51/48 98/50/47
f 99/51/48 112/52/49 100/53/50
f 112/52/49 101/54/51 100/53/50
f 113/55/52 102/56/53 101/54/51
f 114/57/54 103/58/55 102/56/53
f 115/59/56 104/60/57 103/61/55
f 116/62/58 105/63/59 104/60/57
f 117/64/60 106/65/61 105/63/59
f 118/66/62 107/67/63 106/65/61
f 119/68/64 108/69/65 107/67/63
f 108/69/65 109/70/66 97/48/45
f 109/70/66 122/71/67 110/49/46
f 122/71/67 111/72/68 110/49/46
f 111/72/68 124/73/69 112/52/49
f 124/73/69 113/55/52 112/52/49
f 125/74/70 114/57/54 113/55/52
f 126/75/71 115/76/56 114/57/54
f 127/77/72 116/62/58 115/59/56
f 128/78/73 117/64/60 116/62/58
f 129/79/74 118/66/62 117/64/60
f 130/80/75 119/68/64 118/66/62
f 131/81/76 120/82/77 119/68/64
f 132/83/78 109/70/66 120/82/77
f 133/84/79 122/71/67 121/85/80
f 134/86/81 123/87/82 122/71/67
f 123/87/82 136/88/83 124/73/69
f 124/73/69 137/89/84 125/74/70
f 137/89/84 126/75/71 125/74/70
f 138/90/85 127/91/72 126/75/71
f 127/77/72 140/92/86 128/78/73
f 140/92/86 129/79/74 128/78/73
f 141/93/87 130/80/75 129/79/74
f 142/94/88 131/81/76 130/80/75
f 143/95/89 132/83/78 131/81/76
f 144/96/90 121/85/80 132/83/78
f 133/84/79 146/97/91 134/86/81
f 134/86/81 147/98/92 135/99/93
f 135/99/93 148/100/94 136/88/83
f 148/100/94 137/89/84 136/88/83
f 137/89/84 150/101/95 138/90/85
f 138/90/85 151/102/96 139/103/97
f 151/104/96 140/92/86 139/105/97
f 152/106/98 141/93/87 140/92/86
f 153/107/99 142/94/88 141/93/87
f 142/94/88 155/108/100 143/95/89
f 155/108/100 144/96/90 143/95/89
f 156/109/101 133/84/79 144/96/90
f 37/1/1 38/24/22 26/2/2
f 26/2/2 38/24/22 39/4/4
f 39/4/4 40/7/7 28/6/6
f 40/7/7 41/9/9 29/8/8
f 41/9/9 42/29/27 30/10/10
f 30/10/10 42/29/27 43/11/11
f 43/13/11 44/16/14 32/14/13
f 44/16/14 45/32/30 33/17/15
f 33/17/15 45/32/30 46/18/16
f 46/18/16 47/34/32 35/20/18
f 35/20/18 47/34/32 48/21/19
f 48/21/19 37/1/1 25/3/3
f 49/23/21 50/25/23 38/24/22
f 50/25/23 51/26/24 39/4/4
f 51/26/24 52/27/25 40/7/7
f 52/27/25 53/39/37 41/9/9
f 41/9/9 53/39/37 54/28/26
f 54/28/26 55/41/28 43/11/11
f 55/30/28 56/31/29 44/16/14
f 56/31/29 57/43/40 45/32/30
f 45/32/30 57/43/40 58/33/31
f 58/33/31 59/35/33 47/34/32
f 59/35/33 60/46/43 48/21/19
f 48/21/19 60/46/43 49/23/21
f 49/23/21 61/110/102 62/36/34
f 62/36/34 63/37/35 51/26/24
f 63/37/35 64/38/36 52/27/25
f 64/38/36 65/111/103 53/39/37
f 53/39/37 65/111/103 66/40/38
f 66/40/38 67/112/104 55/41/28
f 55/30/28 67/113/104 68/42/39
f 68/42/39 69/114/105 57/43/40
f 57/43/40 69/114/105 70/44/41
f 70/44/41 71/45/42 59/35/33
f 71/45/42 72/47/44 60/46/43
f 72/47/44 61/110/102 49/23/21
f 97/48/45 109/70/66 110/49/46
f 110/49/46 111/72/68 99/51/48
f 99/51/48 111/72/68 112/52/49
f 112/52/49 113/55/52 101/54/51
f 113/55/52 114/57/54 102/56/53
f 114/57/54 115/76/56 103/58/55
f 115/59/56 116/62/58 104/60/57
f 116/62/58 117/64/60 105/63/59
f 117/64/60 118/66/62 106/65/61
f 118/66/62 119/68/64 107/67/63
f 119/68/64 120/82/77 108/69/65
f 108/69/65 120/82/77 109/70/66
f 109/70/66 121/85/80 122/71/67
f 122/71/67 123/87/82 111/72/68
f 111/72/68 123/87/82 124/73/69
f 124/73/69 125/74/70 113/55/52
f 125/74/70 126/75/71 114/57/54
f 126/75/71 127/91/72 115/76/56
f 127/77/72 128/78/73 116/62/58
f 128/78/73 129/79/74 117/64/60
f 129/79/74 130/80/75 118/66/62
f 130/80/75 131/81/76 119/68/64
f 131/81/76 132/83/78 120/82/77
f 132/83/78 121/85/80 109/70/66
f 133/84/79 134/86/81 122/71/67
f 134/86/81 135/99/93 123/87/82
f 123/87/82 135/99/93 136/88/83
f 124/73/69 136/88/83 137/89/84
f 137/89/84 138/90/85 126/75/71
f 138/90/85 139/103/97 127/91/72
f 127/77/72 139/105/97 140/92/86
f 140/92/86 141/93/87 129/79/74
f 141/93/87 142/94/88 130/80/75
f 142/94/88 143/95/89 131/81/76
f 143/95/89 144/96/90 132/83/78
f 144/96/90 133/84/79 121/85/80
f 133/84/79 145/115/106 146/97/91
f 134/86/81 146/97/91 147/98/92
f 135/99/93 147/98/92 148/100/94
f 148/100/94 149/116/107 137/89/84
f 137/89/84 149/116/107 150/101/95
f 138/90/85 150/101/95 151/102/96
f 151/104/96 152/106/98 140/92/86
f 152/106/98 153/107/99 141/93/87
f 153/107/99 154/117/108 142/94/88
f 142/94/88 154/117/108 155/108/100
f 155/108/100 156/109/101 144/96/90
f 156/109/101 145/115/106 133/84/79
f 13/118/109 2/119/110 1/120/111
f 14/121/112 3/122/113 2/119/110
f 3/122/113 16/123/114 4/124/115
f 16/123/114 5/125/116 4/124/115
f 17/126/117 6/127/118 5/125/116
f 18/128/119 7/129/120 6/127/118
f 19/130/121 8/131/122 7/132/120
f 20/133/123 9/134/124 8/131/122
f 21/135/125 10/136/126 9/134/124
f 22/137/127 11/138/128 10/136/126
f 23/139/129 12/140/130 11/138/128
f 24/141/131 1/120/111 12/140/130
f 13/118/109 26/2/2 14/121/112
f 14/121/112 27/5/5 15/142/132
f 27/5/5 16/123/114 15/142/132
f 28/6/6 17/126/117 16/123/114
f 29/8/8 18/128/119 17/126/117
f 30/10/10 19/143/121 18/128/119
f 31/15/12 20/133/123 19/130/121
f 32/14/13 21/135/125 20/133/123
f 33/17/15 22/137/127 21/135/125
f 34/19/17 23/139/129 22/137/127
f 35/20/18 24/141/131 23/139/129
f 36/22/20 13/118/109 24/141/131
f 61/110/102 74/144/133 62/36/34
f 74/144/133 63/37/35 62/36/34
f 75/145/134 64/38/36 63/37/35
f 76/146/135 65/111/103 64/38/36
f 65/111/103 78/147/136 66/40/38
f 78/147/136 67/112/104 66/40/38
f 79/148/137 68/42/39 67/113/104
f 80/149/138 69/114/105 68/42/39
f 69/114/105 82/150/139 70/44/41
f 70/44/41 83/151/140 71/45/42
f 83/151/140 72/47/44 71/45/42
f 84/152/141 61/110/102 72/47/44
f 85/153/142 74/154/133 73/155/143
f 86/156/144 75/157/134 74/154/133
f 87/158/145 76/159/135 75/157/134
f 88/160/146 77/161/147 76/159/135
f 89/162/148 78/163/136 77/161/147
f 90/164/149 79/165/137 78/163/136
f 91/166/150 80/167/138 79/168/137
f 92/169/151 81/170/152 80/167/138
f 81/170/152 94/171/153 82/172/139
f 82/172/139 95/173/154 83/174/140
f 83/174/140 96/175/155 84/176/141
f 96/175/155 73/155/143 84/176/141
f 97/48/45 86/156/144 85/153/142
f 98/50/47 87/158/145 86/156/144
f 99/51/48 88/160/146 87/158/145
f 88/160/146 101/54/51 89/162/148
f 101/54/51 90/164/149 89/162/148
f 90/164/149 103/58/55 91/177/150
f 103/61/55 92/169/151 91/166/150
f 104/60/57 93/178/156 92/169/151
f 105/63/59 94/171/153 93/178/156
f 106/65/61 95/173/154 94/171/153
f 107/67/63 96/175/155 95/173/154
f 96/175/155 97/48/45 85/153/142
f 145/115/106 2/119/110 146/97/91
f 2/119/110 147/98/92 146/97/91
f 147/98/92 4/124/115 148/100/94
f 4/124/115 149/116/107 148/100/94
f 5/125/116 150/101/95 149/116/107
f 150/101/95 7/129/120 151/102/96
f 7/132/120 152/106/98 151/104/96
f 8/131/122 153/107/99 152/106/98
f 9/134/124 154/117/108 153/107/99
f 10/136/126 155/108/100 154/117/108
f 11/138/128 156/109/101 155/108/100
f 12/140/130 145/115/106 156/109/101
f 13/118/109 14/121/112 2/119/110
f 14/121/112 15/142/132 3/122/113
f 3/122/113 15/142/132 16/123/114
f 16/123/114 17/126/117 5/125/116
f 17/126/117 18/128/119 6/127/118
f 18/128/119 19/143/121 7/129/120
f 19/130/121 20/133/123 8/131/122
f 20/133/123 21/135/125 9/134/124
f 21/135/125 22/137/127 10/136/126
f 22/137/127 23/139/129 11/138/128
f 23/139/129 24/141/131 12/140/130
f 24/141/131 13/118/109 1/120/111
f 13/118/109 25/3/3 26/2/2
f 14/121/112 26/2/2 27/5/5
f 27/5/5 28/6/6 16/123/114
f 28/6/6 29/8/8 17/126/117
f 29/8/8 30/10/10 18/128/119
f 30/10/10 31/12/12 19/143/121
f 31/15/12 32/14/13 20/133/123
f 32/14/13 33/17/15 21/135/125
f 33/17/15 34/19/17 22/137/127
f 34/19/17 35/20/18 23/139/129
f 35/20/18 36/22/20 24/141/131
f 36/22/20 25/3/3 13/118/109
f 61/110/102 73/179/143 74/144/133
f 74/144/133 75/145/134 63/37/35
f 75/145/134 76/146/135 64/38/36
f 76/146/135 77/180/147 65/111/103
f 65/111/103 77/180/147 78/147/136
f 78/147/136 79/181/137 67/112/104
f 79/148/137 80/149/138 68/42/39
f 80/149/138 81/182/152 69/114/105
f 69/114/105 81/182/152 82/150/139
f 70/44/41 82/150/139 83/151/140
f 83/151/140 84/152/141 72/47/44
f 84/152/141 73/179/143 61/110/102
f 85/153/142 86/156/144 74/154/133
f 86/156/144 87/158/145 75/157/134
f 87/158/145 88/160/146 76/159/135
f 88/160/146 89/162/148 77/161/147
f 89/162/148 90/164/149 78/163/136
f 90/164/149 91/177/150 79/165/137
f 91/166/150 92/169/151 80/167/138
f 92/169/151 93/178/156 81/170/152
f 81/170/152 93/178/156 94/171/153
f 82/172/139 94/171/153 95/173/154
f 83/174/140 95/173/154 96/175/155
f 96/175/155 85/153/142 73/155/143
f 97/48/45 98/50/47 86/156/144
f 98/50/47 99/51/48 87/158/145
f 99/51/48 100/53/50 88/160/146
f 88/160/146 100/53/50 101/54/51
f 101/54/51 102/56/53 90/164/149
f 90/164/149 102/56/53 103/58/55
f 103/61/55 104/60/57 92/169/151
f 104/60/57 105/63/59 93/178/156
f 105/63/59 106/65/61 94/171/153
f 106/65/61 107/67/63 95/173/154
f 107/67/63 108/69/65 96/175/155
f 96/175/155 108/69/65 97/48/45
f 145/115/106 1/120/111 2/119/110
f 2/119/110 3/122/113 147/98/92
f 147/98/92 3/122/113 4/124/115
f 4/124/115 5/125/116 149/116/107
f 5/125/116 6/127/118 150/101/95
f 150/101/95 6/127/118 7/129/120
f 7/132/120 8/131/122 152/106/98
f 8/131/122 9/134/124 153/107/99
f 9/134/124 10/136/126 154/117/108
f 10/136/126 11/138/128 155/108/100
f 11/138/128 12/140/130 156/109/101
f 12/140/130 1/120/111 145/115/106
