# Blender v2.92.0 OBJ File: 'Beach House.blend'
# www.blender.org
o window_reg_Plane.011
v -1.269126 5.864924 -3.814573
v -1.358772 4.796074 -3.932598
v -1.358772 5.954570 -3.932598
v -0.651792 5.864924 -3.814573
v -0.562146 4.796074 -3.932598
v -0.562146 5.954570 -3.932598
v -1.358772 4.796074 -3.814573
v -1.358772 5.954570 -3.814573
v -0.562146 5.954570 -3.814573
v -0.562146 4.796074 -3.814573
v -1.269126 4.885720 -3.847887
v -1.269126 5.864924 -3.847887
v -0.651792 5.864924 -3.847887
v -0.651792 4.885720 -3.847887
v -1.358772 4.796074 -3.697254
v -0.562146 4.796074 -3.697254
v -1.310478 4.844367 -3.814573
v -1.210644 4.885720 -3.814573
v -1.269126 4.885720 -3.823237
v -1.269126 4.944201 -3.814573
v -1.264109 4.873608 -3.814573
v -0.710274 4.885720 -3.814573
v -0.610439 4.844367 -3.814573
v -0.651792 4.944201 -3.814573
v -0.651792 4.885720 -3.823237
v -0.656809 4.873608 -3.814573
v -1.210644 4.885720 -3.697254
v -1.310478 4.844367 -3.697254
v -1.264109 4.873608 -3.697254
v -0.610439 4.844367 -3.697254
v -0.710274 4.885720 -3.697254
v -0.656809 4.873608 -3.697254
vt 0.625000 0.000000
vt 0.375000 0.250000
vt 0.375000 0.000000
vt 0.625000 0.250000
vt 0.375000 0.500000
vt 0.625000 0.500000
vt 0.375000 0.750000
vt 0.605655 0.971867
vt 0.605655 0.778133
vt 0.605655 0.778133
vt 0.125000 0.750000
vt 0.125000 0.500000
vt 0.875000 0.500000
vt 0.625000 0.750000
vt 0.394345 0.971867
vt 0.394345 0.796486
vt 0.394345 0.778133
vt 0.385422 0.765156
vt 0.375000 0.750000
vt 0.406966 0.778133
vt 0.625000 1.000000
vt 0.375000 1.000000
vt 0.385422 0.984844
vt 0.385422 0.984844
vt 0.394345 0.953514
vt 0.394345 0.796486
vt 0.406966 0.971867
vt 0.125000 0.750000
vt 0.375000 1.000000
vt 0.394345 0.953514
vt 0.393580 0.972980
vt 0.394345 0.971867
vt 0.394345 0.779707
vt 0.394345 0.778133
vt 0.393474 0.971342
vt 0.394345 0.971867
vt 0.393474 0.778658
vt 0.385422 0.765156
vt 0.394345 0.778133
vt 0.605655 0.971867
vt 0.875000 0.750000
vt 0.400656 0.962691
vt 0.394345 0.765156
vn -1.0000 0.0000 0.0000
vn 0.0000 0.0000 -1.0000
vn 1.0000 0.0000 0.0000
vn 0.0000 -1.0000 0.0000
vn 0.0000 1.0000 0.0000
vn 0.0568 0.9984 -0.0000
vn 0.6241 0.7813 0.0000
vn 0.7071 0.7071 0.0000
vn -0.9997 0.0033 -0.0224
vn 0.0000 0.0000 1.0000
vn -0.7071 0.7071 0.0000
vn -0.6241 0.7813 0.0000
vn -0.0568 0.9984 0.0000
vn 0.1112 0.9938 0.0000
vn 0.8998 0.0639 -0.4316
vn 0.9664 0.0377 -0.2543
vn 0.9997 0.0033 -0.0224
vn -0.8998 0.0639 -0.4316
vn -0.9664 0.0377 -0.2543
vn -0.3827 0.9239 0.0000
vn -0.1112 0.9938 0.0000
vn 0.3827 0.9239 0.0000
vn -0.1230 0.5431 0.8306
vn 0.1230 0.5431 0.8306
s 1
f 8/1/1 2/2/1 7/3/1
f 3/4/2 5/5/2 2/2/2
f 6/6/3 10/7/3 5/5/3
f 1/8/4 13/9/4 4/10/4
f 5/5/4 7/11/4 2/12/4
f 3/13/5 9/14/5 6/6/5
f 11/15/5 22/16/6 14/17/5
f 23/18/7 16/19/8 10/7/8
f 24/20/9 13/9/1 14/17/1
f 1/8/10 9/14/10 8/21/10
f 24/20/10 10/7/10 9/14/10
f 7/22/11 28/23/12 17/24/12
f 18/25/13 31/26/14 22/16/6
f 20/27/10 8/21/10 7/22/10
f 10/7/4 15/28/4 7/11/4
f 15/29/10 16/19/10 27/30/10
f 21/31/15 19/32/16 20/27/17
f 26/33/18 24/20/9 25/34/19
f 18/25/13 29/35/20 27/30/21
f 21/36/20 28/23/12 29/35/20
f 23/18/7 32/37/22 30/38/7
f 26/39/22 31/26/14 32/37/22
f 20/27/17 11/15/3 12/40/3
f 8/1/1 3/4/1 2/2/1
f 3/4/2 6/6/2 5/5/2
f 6/6/3 9/14/3 10/7/3
f 1/8/4 12/40/4 13/9/4
f 5/5/4 10/7/4 7/11/4
f 3/13/5 8/41/5 9/14/5
f 11/15/5 19/32/5 18/25/13
f 18/25/13 22/16/6 11/15/5
f 22/16/6 25/34/5 14/17/5
f 23/18/7 30/38/7 16/19/8
f 14/17/1 25/34/19 24/20/9
f 24/20/9 4/10/1 13/9/1
f 1/8/10 4/10/10 9/14/10
f 9/14/10 4/10/10 24/20/10
f 24/20/10 23/18/10 10/7/10
f 7/22/11 15/29/11 28/23/12
f 18/25/13 27/30/21 31/26/14
f 7/22/10 17/24/10 20/27/10
f 20/27/10 1/8/10 8/21/10
f 10/7/4 16/19/4 15/28/4
f 16/19/10 30/38/10 31/26/10
f 30/38/10 32/37/10 31/26/10
f 31/26/10 27/30/10 16/19/10
f 27/30/10 29/35/10 28/23/10
f 28/23/10 15/29/10 27/30/10
f 20/27/10 17/24/10 21/31/10
f 21/31/23 18/42/23 19/32/23
f 25/34/24 22/16/24 26/33/24
f 26/33/10 23/43/10 24/20/10
f 18/25/13 21/36/20 29/35/20
f 21/36/20 17/24/12 28/23/12
f 23/18/7 26/39/22 32/37/22
f 26/39/22 22/16/6 31/26/14
f 12/40/3 1/8/3 20/27/17
f 20/27/17 19/32/16 11/15/3
f 13/9/10 11/15/10 14/17/10
f 13/9/10 12/40/10 11/15/10
