# Blender v2.92.0 OBJ File: 'Beach House.blend'
# www.blender.org
o window_circle_Plane.010
v -3.057905 7.873101 -3.974766
v -3.057905 7.873101 -3.867971
v -2.884684 7.838646 -3.974766
v -2.884684 7.838646 -3.867971
v -2.737834 7.740524 -3.974766
v -2.737834 7.740524 -3.867971
v -2.639713 7.593674 -3.974766
v -2.639713 7.593674 -3.867971
v -2.605257 7.420453 -3.974766
v -2.605257 7.420453 -3.867971
v -2.639713 7.247232 -3.974766
v -2.639713 7.247232 -3.867971
v -2.737834 7.100382 -3.974766
v -2.737834 7.100382 -3.867971
v -2.884684 7.002261 -3.974766
v -2.884684 7.002260 -3.867971
v -3.057905 6.967804 -3.974766
v -3.057905 6.967804 -3.867971
v -3.231126 7.002260 -3.974766
v -3.231126 7.002260 -3.867971
v -3.377976 7.100382 -3.974766
v -3.377976 7.100382 -3.867971
v -3.476098 7.247232 -3.974766
v -3.476098 7.247232 -3.867971
v -3.510554 7.420453 -3.974766
v -3.510554 7.420453 -3.867971
v -3.476098 7.593674 -3.974766
v -3.476098 7.593674 -3.867971
v -3.377976 7.740524 -3.974766
v -3.377976 7.740524 -3.867971
v -3.231126 7.838646 -3.974766
v -3.231126 7.838646 -3.867971
v -3.057905 7.945169 -3.974766
v -2.857105 7.905228 -3.974766
v -2.857105 7.905228 -3.867971
v -3.057905 7.945169 -3.867971
v -2.686875 7.791483 -3.974766
v -2.686875 7.791483 -3.867971
v -2.573130 7.621253 -3.974766
v -2.573130 7.621253 -3.867971
v -2.533189 7.420453 -3.974766
v -2.533189 7.420453 -3.867971
v -2.573130 7.219653 -3.974766
v -2.573130 7.219653 -3.867971
v -2.686875 7.049422 -3.974766
v -2.686875 7.049422 -3.867971
v -2.857105 6.935678 -3.974766
v -2.857105 6.935678 -3.867971
v -3.057905 6.895737 -3.974766
v -3.057905 6.895737 -3.867971
v -3.258705 6.935678 -3.974766
v -3.258705 6.935678 -3.867971
v -3.428936 7.049422 -3.974766
v -3.428936 7.049422 -3.867971
v -3.542680 7.219653 -3.974766
v -3.542680 7.219653 -3.867971
v -3.582622 7.420453 -3.974766
v -3.582622 7.420453 -3.867971
v -3.542680 7.621253 -3.974766
v -3.542680 7.621253 -3.867971
v -3.428936 7.791484 -3.974766
v -3.428936 7.791484 -3.867971
v -3.258705 7.905228 -3.974766
v -3.258705 7.905228 -3.867971
v -3.091571 6.917454 -3.883018
v -3.091571 7.919132 -3.883018
v -3.091571 6.917454 -3.951070
v -3.091571 7.919132 -3.951070
v -3.024240 6.917454 -3.883018
v -3.024240 7.919132 -3.883018
v -3.024240 6.917454 -3.951070
v -3.024240 7.919132 -3.951070
v -3.558744 7.451959 -3.883018
v -2.557066 7.451959 -3.883018
v -3.558744 7.451959 -3.951070
v -2.557066 7.451959 -3.951070
v -3.558744 7.384627 -3.883018
v -2.557066 7.384627 -3.883018
v -3.558744 7.384627 -3.951070
v -2.557066 7.384627 -3.951070
vt 1.000000 1.000000
vt 0.937500 0.500000
vt 1.000000 0.500000
vt 0.937500 1.000000
vt 0.875000 0.500000
vt 0.875000 1.000000
vt 0.812500 0.500000
vt 0.812500 1.000000
vt 0.750000 0.500000
vt 0.750000 1.000000
vt 0.687500 0.500000
vt 0.687500 1.000000
vt 0.625000 0.500000
vt 0.625000 1.000000
vt 0.562500 0.500000
vt 0.562500 1.000000
vt 0.500000 0.500000
vt 0.500000 1.000000
vt 0.437500 0.500000
vt 0.437500 1.000000
vt 0.375000 0.500000
vt 0.375000 1.000000
vt 0.312500 0.500000
vt 0.312500 1.000000
vt 0.250000 0.500000
vt 0.187500 1.000000
vt 0.187500 0.500000
vt 0.125000 1.000000
vt 0.125000 0.500000
vt 0.103603 0.396397
vt 0.670770 0.441277
vt 0.170771 0.441277
vt 0.062500 0.500000
vt 0.062500 1.000000
vt 0.000000 0.500000
vt 0.750000 0.457037
vt 0.250000 0.457037
vt 0.829230 0.441277
vt 0.750000 0.490000
vt 0.841844 0.471731
vt 0.329230 0.441277
vt 0.250000 0.490000
vt 0.919706 0.419706
vt 0.896397 0.396397
vt 0.419706 0.419706
vt 0.341844 0.471731
vt 0.941277 0.329230
vt 0.971731 0.341844
vt 0.441277 0.329230
vt 0.396397 0.396397
vt 0.957037 0.250000
vt 0.990000 0.250000
vt 0.457037 0.250000
vt 0.471731 0.341844
vt 0.971731 0.158156
vt 0.941277 0.170770
vt 0.441277 0.170770
vt 0.490000 0.250000
vt 0.919706 0.080294
vt 0.896397 0.103603
vt 0.396397 0.103603
vt 0.471731 0.158156
vt 0.841844 0.028269
vt 0.829230 0.058723
vt 0.341844 0.028269
vt 0.419706 0.080294
vt 0.750000 0.042963
vt 0.750000 0.010000
vt 0.329230 0.058723
vt 0.250000 0.010000
vt 0.670771 0.058723
vt 0.658156 0.028269
vt 0.170770 0.058723
vt 0.250000 0.042963
vt 0.603603 0.103603
vt 0.580294 0.080294
vt 0.103603 0.103603
vt 0.158156 0.028269
vt 0.558723 0.170770
vt 0.528269 0.158156
vt 0.058723 0.170770
vt 0.080294 0.080294
vt 0.510000 0.250000
vt 0.542963 0.250000
vt 0.042963 0.250000
vt 0.028269 0.158156
vt 0.528269 0.341844
vt 0.558723 0.329230
vt 0.028269 0.341844
vt 0.010000 0.250000
vt 0.580294 0.419706
vt 0.603603 0.396397
vt 0.058723 0.329230
vt 0.080294 0.419706
vt 0.658156 0.471731
vt 0.158156 0.471731
vt 0.625000 0.000000
vt 0.375000 0.250000
vt 0.375000 0.000000
vt 0.625000 0.250000
vt 0.375000 0.500000
vt 0.625000 0.500000
vt 0.375000 0.750000
vt 0.625000 0.750000
vt 0.375000 1.000000
vt 0.125000 0.750000
vt 0.125000 0.500000
vt 0.875000 0.500000
vt 0.625000 0.000000
vt 0.375000 0.250000
vt 0.375000 0.000000
vt 0.625000 0.250000
vt 0.375000 0.500000
vt 0.625000 0.500000
vt 0.375000 0.750000
vt 0.625000 0.750000
vt 0.375000 1.000000
vt 0.125000 0.750000
vt 0.125000 0.500000
vt 0.875000 0.500000
vt 0.250000 1.000000
vt 0.000000 1.000000
vt 0.625000 1.000000
vt 0.875000 0.750000
vt 0.625000 1.000000
vt 0.875000 0.750000
vn -0.0000 1.0000 0.0000
vn 0.3827 0.9239 0.0000
vn 0.7071 0.7071 0.0000
vn 0.9239 0.3827 0.0000
vn 1.0000 -0.0000 0.0000
vn 0.9239 -0.3827 0.0000
vn 0.7071 -0.7071 0.0000
vn 0.3827 -0.9239 -0.0000
vn 0.0000 -1.0000 0.0000
vn -0.3827 -0.9239 0.0000
vn -0.7071 -0.7071 0.0000
vn -0.9239 -0.3827 0.0000
vn -1.0000 0.0000 0.0000
vn -0.9239 0.3827 0.0000
vn -0.7071 0.7071 0.0000
vn -0.3827 0.9239 0.0000
vn 0.0000 0.0000 -1.0000
vn -0.0000 0.0000 1.0000
s 1
f 36/1/1 34/2/2 33/3/1
f 35/4/2 37/5/3 34/2/2
f 38/6/3 39/7/4 37/5/3
f 40/8/4 41/9/5 39/7/4
f 42/10/5 43/11/6 41/9/5
f 44/12/6 45/13/7 43/11/6
f 46/14/7 47/15/8 45/13/7
f 48/16/8 49/17/9 47/15/8
f 50/18/9 51/19/10 49/17/9
f 52/20/10 53/21/11 51/19/10
f 54/22/11 55/23/12 53/21/11
f 56/24/12 57/25/13 55/23/12
f 57/25/13 60/26/14 59/27/14
f 59/27/14 62/28/15 61/29/15
f 30/30/7 31/31/8 32/32/8
f 62/28/15 63/33/16 61/29/15
f 64/34/16 33/35/1 63/33/16
f 32/32/8 1/36/9 2/37/9
f 3/38/17 33/39/17 34/40/17
f 4/41/18 36/42/18 2/37/18
f 3/38/17 37/43/17 5/44/17
f 4/41/18 38/45/18 35/46/18
f 7/47/17 37/43/17 39/48/17
f 8/49/18 38/45/18 6/50/18
f 9/51/17 39/48/17 41/52/17
f 10/53/18 40/54/18 8/49/18
f 9/51/17 43/55/17 11/56/17
f 12/57/18 42/58/18 10/53/18
f 11/56/17 45/59/17 13/60/17
f 14/61/18 44/62/18 12/57/18
f 13/60/17 47/63/17 15/64/17
f 14/61/18 48/65/18 46/66/18
f 17/67/17 47/63/17 49/68/17
f 16/69/18 50/70/18 48/65/18
f 19/71/17 49/68/17 51/72/17
f 20/73/18 50/70/18 18/74/18
f 21/75/17 51/72/17 53/76/17
f 22/77/18 52/78/18 20/73/18
f 23/79/17 53/76/17 55/80/17
f 24/81/18 54/82/18 22/77/18
f 23/79/17 57/83/17 25/84/17
f 26/85/18 56/86/18 24/81/18
f 25/84/17 59/87/17 27/88/17
f 26/85/18 60/89/18 58/90/18
f 27/88/17 61/91/17 29/92/17
f 28/93/18 62/94/18 60/89/18
f 31/31/17 61/91/17 63/95/17
f 32/32/18 62/94/18 30/30/18
f 31/31/17 33/39/17 1/36/17
f 32/32/18 36/42/18 64/96/18
f 30/30/7 27/88/6 29/92/7
f 28/93/6 25/84/5 27/88/6
f 24/81/4 25/84/5 26/85/5
f 22/77/3 23/79/4 24/81/4
f 20/73/2 21/75/3 22/77/3
f 20/73/2 17/67/1 19/71/2
f 16/69/16 17/67/1 18/74/1
f 14/61/15 15/64/16 16/69/16
f 12/57/14 13/60/15 14/61/15
f 10/53/13 11/56/14 12/57/14
f 8/49/12 9/51/13 10/53/13
f 6/50/11 7/47/12 8/49/12
f 4/41/10 5/44/11 6/50/11
f 2/37/9 3/38/10 4/41/10
f 66/97/13 67/98/13 65/99/13
f 68/100/17 71/101/17 67/98/17
f 72/102/5 69/103/5 71/101/5
f 70/104/18 65/105/18 69/103/18
f 71/101/9 65/106/9 67/107/9
f 68/108/1 70/104/1 72/102/1
f 74/109/1 75/110/1 73/111/1
f 76/112/17 79/113/17 75/110/17
f 80/114/9 77/115/9 79/113/9
f 78/116/18 73/117/18 77/115/18
f 79/113/13 73/118/13 75/119/13
f 76/120/5 78/116/5 80/114/5
f 36/1/1 35/4/2 34/2/2
f 35/4/2 38/6/3 37/5/3
f 38/6/3 40/8/4 39/7/4
f 40/8/4 42/10/5 41/9/5
f 42/10/5 44/12/6 43/11/6
f 44/12/6 46/14/7 45/13/7
f 46/14/7 48/16/8 47/15/8
f 48/16/8 50/18/9 49/17/9
f 50/18/9 52/20/10 51/19/10
f 52/20/10 54/22/11 53/21/11
f 54/22/11 56/24/12 55/23/12
f 56/24/12 58/121/13 57/25/13
f 57/25/13 58/121/13 60/26/14
f 59/27/14 60/26/14 62/28/15
f 30/30/7 29/92/7 31/31/8
f 62/28/15 64/34/16 63/33/16
f 64/34/16 36/122/1 33/35/1
f 32/32/8 31/31/8 1/36/9
f 3/38/17 1/36/17 33/39/17
f 4/41/18 35/46/18 36/42/18
f 3/38/17 34/40/17 37/43/17
f 4/41/18 6/50/18 38/45/18
f 7/47/17 5/44/17 37/43/17
f 8/49/18 40/54/18 38/45/18
f 9/51/17 7/47/17 39/48/17
f 10/53/18 42/58/18 40/54/18
f 9/51/17 41/52/17 43/55/17
f 12/57/18 44/62/18 42/58/18
f 11/56/17 43/55/17 45/59/17
f 14/61/18 46/66/18 44/62/18
f 13/60/17 45/59/17 47/63/17
f 14/61/18 16/69/18 48/65/18
f 17/67/17 15/64/17 47/63/17
f 16/69/18 18/74/18 50/70/18
f 19/71/17 17/67/17 49/68/17
f 20/73/18 52/78/18 50/70/18
f 21/75/17 19/71/17 51/72/17
f 22/77/18 54/82/18 52/78/18
f 23/79/17 21/75/17 53/76/17
f 24/81/18 56/86/18 54/82/18
f 23/79/17 55/80/17 57/83/17
f 26/85/18 58/90/18 56/86/18
f 25/84/17 57/83/17 59/87/17
f 26/85/18 28/93/18 60/89/18
f 27/88/17 59/87/17 61/91/17
f 28/93/18 30/30/18 62/94/18
f 31/31/17 29/92/17 61/91/17
f 32/32/18 64/96/18 62/94/18
f 31/31/17 63/95/17 33/39/17
f 32/32/18 2/37/18 36/42/18
f 30/30/7 28/93/6 27/88/6
f 28/93/6 26/85/5 25/84/5
f 24/81/4 23/79/4 25/84/5
f 22/77/3 21/75/3 23/79/4
f 20/73/2 19/71/2 21/75/3
f 20/73/2 18/74/1 17/67/1
f 16/69/16 15/64/16 17/67/1
f 14/61/15 13/60/15 15/64/16
f 12/57/14 11/56/14 13/60/15
f 10/53/13 9/51/13 11/56/14
f 8/49/12 7/47/12 9/51/13
f 6/50/11 5/44/11 7/47/12
f 4/41/10 3/38/10 5/44/11
f 2/37/9 1/36/9 3/38/10
f 66/97/13 68/100/13 67/98/13
f 68/100/17 72/102/17 71/101/17
f 72/102/5 70/104/5 69/103/5
f 70/104/18 66/123/18 65/105/18
f 71/101/9 69/103/9 65/106/9
f 68/108/1 66/124/1 70/104/1
f 74/109/1 76/112/1 75/110/1
f 76/112/17 80/114/17 79/113/17
f 80/114/9 78/116/9 77/115/9
f 78/116/18 74/125/18 73/117/18
f 79/113/13 77/115/13 73/118/13
f 76/120/5 74/126/5 78/116/5
